<?xml version="1.0" standalone="no"?>
<!DOCTYPE svg PUBLIC "-//W3C//DTD SVG 20010904//EN"
 "http://www.w3.org/TR/2001/REC-SVG-20010904/DTD/svg10.dtd">
<svg version="1.0" xmlns="http://www.w3.org/2000/svg"
 width="5895.000000pt" height="6221.000000pt" viewBox="0 0 5895.000000 6221.000000"
 preserveAspectRatio="xMidYMid meet">
<metadata>
Created by potrace 1.16, written by Peter Selinger 2001-2019
</metadata>
<g transform="translate(0.000000,6221.000000) scale(0.100000,-0.100000)"
fill="#000000" stroke="none">
<path d="M21209 52835 c-178 -45 -338 -166 -426 -322 -61 -111 -85 -202 -86
-328 -2 -176 41 -298 153 -439 l58 -74 -239 -323 c-132 -178 -246 -330 -253
-337 -10 -10 -25 -7 -78 18 -185 87 -419 76 -608 -27 -89 -49 -214 -177 -263
-270 -126 -239 -96 -542 75 -750 203 -245 559 -315 841 -166 134 71 279 240
317 368 l12 41 641 -116 642 -115 7 -88 c12 -161 70 -303 167 -409 l49 -54
-314 -424 c-172 -233 -320 -430 -327 -437 -11 -11 -23 -12 -63 -2 -73 17 -228
14 -304 -5 -194 -49 -359 -182 -443 -357 -25 -52 -51 -119 -58 -149 -17 -72
-17 -231 0 -300 59 -241 236 -429 471 -502 62 -19 96 -23 195 -22 103 1 132 5
200 28 44 15 104 41 134 58 69 40 174 138 220 208 61 90 111 224 111 298 l0
32 82 0 c67 0 400 8 909 23 l86 2 16 -88 c31 -163 89 -269 209 -382 63 -60 69
-69 60 -90 -10 -22 -462 -858 -466 -862 -1 -1 -31 7 -66 18 -194 60 -418 21
-595 -106 -88 -63 -149 -135 -201 -240 -58 -118 -78 -210 -71 -340 10 -178 66
-304 197 -436 72 -74 99 -93 180 -132 52 -25 122 -51 154 -57 75 -15 207 -15
280 0 257 53 464 258 522 517 l16 73 539 0 539 0 5 -27 c38 -186 108 -308 240
-422 60 -51 209 -125 285 -141 113 -23 288 -11 378 27 19 8 35 13 37 11 1 -2
228 -408 505 -903 277 -495 509 -906 515 -913 10 -11 19 -10 51 6 22 11 47 27
58 34 17 14 -10 66 -493 927 -281 502 -511 915 -510 919 0 4 19 22 42 40 102
81 192 231 222 368 24 107 16 251 -19 361 -102 315 -439 513 -766 449 -274
-53 -483 -262 -540 -538 l-11 -58 -538 0 -538 0 -13 63 c-27 138 -108 279
-220 379 l-59 53 234 434 c129 239 238 438 243 443 4 4 39 -2 77 -14 92 -29
271 -31 358 -4 202 62 347 183 432 361 52 108 69 180 68 300 0 178 -67 339
-193 466 -132 134 -289 200 -475 201 -122 1 -200 -17 -315 -74 -155 -76 -302
-254 -341 -413 -6 -28 -16 -54 -20 -60 -8 -8 -697 -32 -984 -34 l-101 -1 -18
71 c-39 153 -145 308 -265 390 -28 19 -51 38 -51 43 0 4 140 197 311 427 l310
419 51 -26 c126 -64 314 -82 462 -44 299 76 506 344 506 654 0 188 -63 340
-195 471 -44 45 -105 95 -135 112 -141 81 -328 111 -480 79 -103 -21 -241 -91
-317 -161 -73 -66 -151 -179 -178 -259 -16 -47 -22 -55 -39 -51 -37 9 -1247
225 -1257 225 -5 0 -9 28 -9 63 -1 145 -71 329 -168 437 l-49 55 248 335 c137
184 254 334 261 333 7 -1 41 -13 76 -28 382 -159 810 53 918 455 27 102 23
264 -10 365 -35 111 -89 197 -171 280 -81 80 -152 125 -257 162 -61 22 -94 27
-198 29 -84 2 -143 -1 -181 -11z"/>
<path d="M29695 52774 c-38 -8 -112 -35 -164 -60 -157 -77 -276 -212 -339
-386 -24 -66 -27 -86 -27 -213 0 -151 8 -190 65 -307 89 -181 268 -318 465
-357 68 -13 85 -20 85 -33 0 -11 -10 -20 -27 -24 -256 -54 -443 -221 -528
-469 -27 -75 -32 -254 -10 -349 57 -257 280 -471 536 -514 40 -7 44 -10 47
-38 3 -30 2 -30 -65 -43 -242 -44 -440 -222 -519 -466 -33 -101 -38 -263 -11
-365 69 -263 298 -468 563 -504 l50 -7 17 -522 c10 -287 20 -536 23 -553 4
-31 4 -31 -58 -44 -179 -38 -365 -184 -446 -350 -39 -79 -72 -181 -72 -221 0
-25 -91 -28 -1072 -34 l-846 -5 -17 75 c-28 125 -85 227 -184 325 -103 103
-210 162 -340 187 l-81 16 0 141 c0 78 -14 904 -30 1836 -16 932 -30 1749 -30
1815 l0 121 62 13 c126 26 274 113 363 213 59 68 131 213 150 303 32 151 12
306 -54 440 -118 237 -343 377 -606 377 -265 0 -488 -139 -605 -376 -56 -112
-74 -204 -67 -335 10 -185 84 -344 219 -465 76 -69 216 -140 316 -160 41 -8
75 -16 76 -18 5 -5 58 -3230 60 -3577 l1 -333 -75 -19 c-122 -31 -214 -83
-306 -174 -131 -130 -191 -263 -201 -450 -11 -193 54 -362 192 -501 132 -133
263 -192 445 -201 133 -6 222 12 338 68 174 84 319 270 358 459 8 41 16 76 18
77 1 2 414 5 917 8 503 3 932 8 954 10 l40 4 18 -80 c28 -122 88 -230 177
-319 115 -115 252 -184 387 -197 48 -5 63 -10 63 -22 4 -131 88 -1482 93
-1487 8 -8 118 13 127 24 4 4 -13 336 -36 737 -24 402 -42 735 -40 741 3 6 24
14 48 18 23 4 86 27 138 53 79 38 108 59 180 132 66 66 94 104 122 161 58 122
72 181 72 310 1 133 -21 220 -81 330 -47 85 -178 216 -263 262 -69 39 -185 78
-229 78 -56 0 -54 -17 -72 467 -10 246 -18 493 -18 548 l-1 100 58 13 c233 53
434 252 498 492 23 85 23 243 1 330 -65 251 -271 448 -525 501 -52 11 -53 12
-50 42 2 26 8 33 28 35 146 16 331 120 425 239 107 137 149 255 149 428 1 106
-2 130 -28 209 -76 232 -273 408 -509 454 -68 13 -87 21 -87 34 0 12 15 20 57
28 131 28 254 99 355 209 111 120 166 250 175 416 6 126 -12 220 -66 330 -136
281 -442 432 -746 369z"/>
<path d="M37459 52065 c-128 -31 -252 -106 -343 -207 -70 -77 -140 -215 -159
-313 l-14 -70 -1095 -3 -1095 -2 -12 61 c-51 258 -263 469 -524 523 -342 71
-678 -126 -782 -457 -76 -241 -14 -499 164 -676 85 -85 155 -130 263 -169 67
-24 86 -27 218 -27 132 0 151 3 218 27 235 87 399 277 444 513 l13 65 1095 0
1095 0 13 -67 c16 -84 76 -209 137 -286 86 -108 243 -203 385 -233 41 -8 75
-16 76 -17 2 -1 4 -158 6 -349 l3 -347 -73 -16 c-244 -55 -458 -272 -508 -515
-8 -41 -16 -76 -18 -77 -1 -1 -482 -6 -1068 -10 l-1066 -8 -16 74 c-42 195
-177 366 -361 456 -98 49 -183 68 -295 68 -264 1 -494 -141 -609 -377 -107
-219 -88 -481 49 -681 71 -103 207 -209 320 -251 25 -9 77 -21 115 -28 l70
-12 6 -175 c4 -96 10 -290 14 -431 l7 -258 -22 0 c-42 0 -176 -52 -247 -96
-272 -169 -387 -521 -269 -823 82 -208 274 -368 494 -411 l62 -13 0 -258 0
-259 -234 0 -233 0 -11 55 c-53 263 -262 476 -523 531 -106 23 -249 14 -356
-20 -159 -51 -304 -175 -382 -325 -61 -118 -75 -178 -75 -316 0 -138 14 -198
75 -316 166 -320 569 -450 894 -290 141 70 240 171 310 316 24 50 49 118 56
153 l12 62 233 0 234 0 0 -469 c0 -259 4 -472 8 -475 4 -2 36 -8 70 -12 l62
-7 0 814 0 814 80 18 c130 29 231 86 330 186 96 97 149 187 176 306 10 39 18
76 20 83 3 9 215 12 1018 12 l1016 0 5 -27 c34 -167 84 -266 187 -371 92 -95
219 -166 343 -193 66 -14 211 -13 282 1 81 17 216 82 282 136 274 224 332 617
135 907 -61 89 -148 167 -243 215 -121 63 -177 76 -321 76 -107 -1 -135 -4
-197 -26 -184 -65 -317 -178 -396 -336 -25 -50 -53 -125 -62 -166 l-17 -76
-1016 2 -1015 3 -14 70 c-27 133 -119 288 -218 370 -99 81 -229 139 -356 160
l-36 5 -6 203 c-4 111 -10 304 -13 428 l-7 225 59 13 c87 19 230 92 297 151
109 98 191 240 217 377 l12 61 82 6 c44 3 525 8 1068 11 l987 6 6 -28 c21 -99
30 -127 68 -203 51 -105 167 -228 267 -283 114 -62 197 -82 340 -82 109 1 136
5 207 28 159 53 314 185 387 329 57 115 80 221 73 348 -9 183 -68 314 -201
445 -95 94 -204 155 -328 182 l-76 16 -7 91 c-3 50 -5 207 -3 350 l3 258 75
19 c208 52 382 203 463 399 37 90 49 150 49 255 0 316 -203 577 -509 656 -90
22 -239 24 -324 4z"/>
<path d="M43210 47570 c-139 -22 -271 -91 -375 -196 -80 -80 -125 -151 -163
-256 -24 -67 -27 -86 -27 -218 0 -132 3 -151 27 -218 85 -234 282 -404 514
-445 l61 -11 7 -349 c4 -192 6 -351 3 -353 -2 -2 -37 -14 -78 -25 -183 -50
-339 -184 -425 -364 -83 -173 -85 -391 -4 -563 103 -221 290 -358 540 -397
l35 -5 38 -882 39 -881 -24 -22 c-13 -12 -322 -305 -688 -650 -366 -345 -687
-649 -715 -676 l-49 -49 44 -45 c24 -25 49 -45 55 -45 5 1 318 293 695 649
l685 649 3 -39 c3 -37 5 -39 38 -39 25 0 41 -7 57 -25 l22 -25 170 136 c124
99 175 134 190 131 147 -35 175 -39 275 -34 167 8 302 64 420 174 129 119 220
315 220 474 l0 38 70 -43 c117 -72 190 -91 355 -91 126 0 147 3 213 27 107 39
177 83 262 168 62 61 85 93 122 170 58 119 72 179 72 305 0 115 -27 228 -74
311 l-29 52 276 218 c152 121 285 225 295 232 15 11 26 6 84 -38 137 -105 254
-145 424 -144 96 1 128 5 195 27 210 69 369 224 442 429 37 105 43 263 15 374
-79 314 -339 518 -657 517 -163 -1 -296 -47 -417 -144 -248 -199 -327 -534
-193 -817 19 -41 35 -76 35 -77 0 -4 -557 -446 -576 -457 -6 -4 -35 13 -64 37
-206 169 -484 201 -725 85 -217 -105 -352 -303 -380 -557 l-7 -61 -61 39 c-90
57 -201 90 -322 96 -127 6 -219 -13 -333 -68 -69 -33 -102 -58 -172 -128 -51
-51 -98 -109 -116 -144 l-30 -57 -17 412 c-10 227 -17 431 -17 453 l0 40 88
27 c280 86 466 324 480 614 6 131 -15 225 -75 345 -96 194 -299 336 -505 356
l-58 6 0 97 c0 53 -3 211 -6 351 l-7 254 77 17 c199 45 366 178 456 363 212
437 -88 943 -575 970 -44 2 -105 0 -135 -5z"/>
<path d="M40692 47320 c-96 -25 -152 -51 -227 -105 -121 -86 -205 -204 -256
-360 -31 -92 -33 -277 -5 -370 87 -287 328 -478 621 -492 292 -14 548 148 658
417 37 91 48 149 48 260 -1 115 -18 189 -71 295 -68 138 -167 238 -305 306
-141 69 -314 88 -463 49z"/>
<path d="M36253 46409 c-224 -20 -431 -165 -534 -374 -162 -327 -30 -729 295
-896 44 -23 82 -42 83 -43 1 -1 -29 -130 -67 -286 -37 -157 -70 -293 -72 -304
-2 -15 9 -22 62 -37 36 -9 66 -16 67 -15 2 1 36 138 75 304 l73 302 110 4 c63
2 134 12 165 21 88 27 203 92 268 151 224 202 286 535 152 802 -129 256 -386
397 -677 371z"/>
<path d="M27235 46134 c-272 -57 -463 -222 -540 -467 -55 -172 -41 -335 42
-506 75 -156 214 -278 385 -338 88 -32 253 -42 349 -24 48 10 64 10 69 1 4 -7
77 -176 161 -377 150 -356 154 -365 179 -360 14 3 44 14 66 24 l42 18 -154
365 c-85 201 -157 374 -160 385 -4 15 4 25 33 40 56 30 173 152 216 225 116
200 122 453 15 657 -92 175 -267 307 -460 347 -71 15 -195 20 -243 10z"/>
<path d="M39821 46084 c-36 -7 -96 -29 -135 -47 -178 -85 -302 -226 -363 -412
-22 -68 -26 -97 -26 -200 0 -103 4 -132 26 -200 92 -279 324 -458 613 -472
126 -7 220 12 330 67 240 117 378 340 377 605 -1 266 -139 487 -378 606 -134
66 -296 86 -444 53z"/>
<path d="M41273 45259 c-228 -26 -426 -168 -528 -380 -51 -106 -69 -200 -63
-328 9 -181 66 -308 198 -442 62 -62 94 -85 170 -122 241 -118 488 -97 705 58
88 63 149 135 201 240 98 198 99 401 2 605 -33 69 -57 101 -127 171 -73 73
-101 93 -181 132 -129 62 -239 81 -377 66z"/>
<path d="M39002 44850 c-182 -48 -350 -182 -430 -345 -52 -105 -64 -154 -70
-272 -6 -139 13 -231 71 -346 55 -111 179 -236 287 -290 204 -101 414 -102
615 -3 139 69 234 165 307 311 47 94 62 161 62 290 1 107 -2 130 -28 209 -72
218 -254 391 -472 446 -101 26 -242 26 -342 0z"/>
<path d="M17265 44841 c-154 -25 -270 -85 -381 -195 -68 -68 -89 -97 -127
-176 -57 -119 -71 -180 -71 -300 0 -120 15 -181 71 -299 38 -79 59 -108 127
-177 69 -68 98 -89 177 -127 52 -25 119 -51 149 -58 73 -17 220 -17 298 0 34
8 64 12 66 10 8 -10 889 -1976 893 -1994 3 -14 -8 -32 -34 -57 l-38 -37 -315
225 c-215 154 -314 231 -313 242 1 10 17 58 35 107 30 83 32 100 33 215 0 112
-3 134 -29 213 -110 336 -462 533 -802 447 -130 -33 -217 -82 -314 -180 -137
-136 -200 -286 -200 -476 0 -142 40 -273 120 -389 31 -45 123 -137 162 -163
l26 -17 -272 -216 -273 -216 -59 48 c-122 101 -267 151 -434 150 -115 0 -188
-18 -300 -73 -120 -58 -241 -179 -298 -299 -92 -191 -95 -403 -8 -584 72 -152
172 -252 321 -325 259 -126 561 -75 765 130 132 132 190 262 198 441 5 129
-13 222 -64 329 -19 40 -31 76 -27 80 4 4 138 109 297 235 l288 228 74 -17
c219 -48 446 9 604 152 32 28 61 52 64 52 8 0 636 -450 636 -456 0 -3 -8 -21
-19 -42 -74 -145 -85 -330 -32 -502 60 -191 220 -353 423 -428 67 -24 86 -27
218 -27 132 0 151 3 218 27 96 35 171 80 244 147 l58 54 58 -40 c31 -22 188
-129 347 -238 281 -192 669 -458 1270 -870 483 -331 518 -355 526 -355 9 0 69
93 69 107 0 6 -278 201 -617 433 -340 232 -623 428 -630 434 -9 8 25 63 142
230 84 120 158 223 163 228 5 5 30 -1 63 -17 138 -64 328 -72 486 -21 205 66
374 244 439 461 25 83 25 276 0 360 -87 286 -331 480 -621 492 -204 9 -361
-51 -506 -196 -73 -73 -93 -101 -132 -181 -25 -52 -50 -120 -57 -150 -14 -71
-14 -220 1 -290 23 -112 106 -260 190 -340 l27 -26 -163 -231 -162 -232 -394
270 c-217 149 -400 274 -408 279 -12 6 -10 18 12 71 42 102 51 147 51 264 0
88 -4 125 -23 185 -43 139 -108 239 -213 328 -62 52 -208 132 -242 132 -9 0
-19 7 -22 15 -4 8 24 231 61 495 l68 480 51 0 c176 1 366 95 495 245 51 60
125 209 141 285 14 71 14 220 -1 290 -16 78 -82 214 -133 276 -99 121 -242
210 -386 240 -107 23 -250 14 -357 -20 -205 -66 -373 -243 -439 -461 -25 -83
-25 -277 0 -360 64 -210 219 -379 417 -452 l71 -27 -6 -45 c-3 -25 -34 -245
-68 -487 l-62 -441 -78 -6 c-45 -4 -115 -19 -166 -36 -48 -16 -88 -28 -88 -28
-2 3 -885 1970 -890 1982 -2 6 19 25 47 44 83 57 166 155 214 256 55 114 69
176 69 295 -1 121 -15 182 -71 300 -38 80 -58 108 -128 177 -68 67 -99 89
-176 126 -52 25 -114 50 -139 55 -65 16 -197 22 -255 13z"/>
<path d="M40342 44000 c-367 -96 -583 -491 -468 -856 94 -296 378 -492 686
-471 174 12 310 74 437 202 67 68 89 99 126 176 53 110 69 180 69 298 -1 312
-215 585 -513 656 -90 21 -246 19 -337 -5z"/>
<path d="M21431 43695 c-229 -50 -424 -230 -496 -458 -55 -172 -41 -335 42
-506 37 -77 59 -108 122 -170 133 -131 261 -190 438 -199 160 -8 294 28 416
110 l58 39 675 -668 c372 -367 681 -669 688 -671 6 -1 31 18 56 43 l45 46
-267 266 -268 267 58 60 c31 34 112 120 180 193 l123 132 37 -26 c101 -69 228
-106 367 -106 122 0 202 19 311 74 229 114 365 339 365 604 0 187 -65 342
-201 477 -63 62 -96 85 -171 121 -120 58 -181 72 -304 71 -303 -1 -556 -190
-647 -484 -33 -106 -33 -273 0 -380 25 -80 67 -163 112 -220 l28 -35 -180
-193 -180 -193 -347 342 c-190 189 -354 351 -365 360 -18 16 -18 18 11 60 166
242 154 574 -27 800 -164 204 -426 298 -679 244z"/>
<path d="M27549 42195 c-284 -69 -491 -318 -514 -616 -6 -71 -3 -99 18 -180
73 -280 263 -471 519 -523 355 -72 700 142 794 494 23 86 23 244 0 329 -64
245 -259 439 -496 495 -80 19 -244 19 -321 1z"/>
<path d="M47550 42154 c-14 -2 -52 -9 -85 -15 -33 -6 -102 -31 -154 -56 -78
-37 -109 -59 -177 -127 -67 -68 -90 -99 -128 -177 -30 -63 -49 -119 -58 -169
-6 -41 -12 -76 -13 -77 0 -1 -133 -16 -295 -32 -162 -17 -311 -33 -331 -36
-36 -5 -37 -4 -44 33 -4 20 -21 69 -39 107 -83 178 -226 302 -421 366 -101 34
-278 34 -385 1 -116 -36 -195 -85 -286 -177 -89 -89 -150 -194 -179 -310 -30
-117 -16 -309 30 -419 9 -21 15 -39 13 -41 -2 -2 -89 -57 -194 -122 l-190
-120 -78 74 c-59 55 -101 84 -170 118 -109 52 -181 69 -301 68 -182 0 -341
-67 -470 -197 -187 -188 -247 -443 -164 -694 12 -35 19 -65 18 -67 -2 -1 -105
-62 -229 -135 -124 -72 -228 -135 -232 -138 -7 -7 68 -112 80 -112 4 1 108 60
231 133 l224 132 76 -76 c62 -62 94 -85 171 -122 122 -58 182 -72 305 -71 194
1 331 59 470 199 100 99 149 183 180 305 36 140 26 301 -25 418 l-19 42 22 14
c12 8 101 63 197 123 l175 109 58 -59 c132 -133 287 -197 478 -197 275 0 512
155 623 407 29 66 56 177 56 230 0 40 -22 35 305 68 143 14 278 28 301 31 l40
6 13 -59 c7 -32 33 -100 58 -152 38 -79 59 -109 129 -179 46 -46 84 -85 84
-87 0 -6 -209 -337 -219 -348 -4 -4 -29 1 -55 12 -265 114 -611 20 -784 -213
-156 -210 -184 -463 -79 -699 17 -40 26 -71 21 -76 -12 -11 -469 -357 -483
-365 -6 -4 -39 16 -73 44 -128 104 -268 153 -433 153 -264 0 -487 -138 -606
-378 -87 -175 -92 -390 -13 -566 16 -34 23 -63 18 -68 -5 -4 -101 -72 -214
-151 -113 -79 -207 -145 -209 -146 -2 -2 53 -107 65 -123 2 -2 102 67 224 153
l220 156 72 -61 c137 -114 273 -163 453 -162 91 0 124 5 190 26 150 49 279
145 361 268 131 198 150 459 49 674 -15 32 -23 60 -19 65 5 5 119 92 253 194
l243 185 37 -34 c109 -101 227 -155 378 -174 277 -34 553 112 677 358 60 121
80 214 74 350 -8 171 -62 297 -186 432 l-63 68 112 178 c62 98 113 179 114
181 1 1 38 -7 81 -20 101 -28 258 -30 354 -4 194 53 353 185 441 367 44 90 62
173 63 284 1 123 -13 183 -71 305 -38 80 -58 108 -128 177 -68 67 -99 89 -176
126 -52 25 -116 50 -144 55 -63 13 -182 22 -215 16z"/>
<path d="M49485 40364 c-276 -45 -500 -242 -571 -504 -21 -77 -24 -252 -6
-320 7 -25 25 -74 39 -109 22 -53 24 -65 12 -72 -8 -4 -115 -77 -239 -162
l-225 -155 -51 50 c-127 124 -287 188 -468 188 -187 0 -339 -63 -472 -195 -91
-89 -140 -169 -176 -285 -30 -98 -33 -283 -5 -374 74 -241 257 -419 487 -474
l70 -17 0 -55 c0 -30 -9 -302 -20 -605 -11 -302 -20 -571 -20 -596 l0 -46 -65
-12 c-36 -6 -96 -23 -133 -36 -36 -13 -67 -23 -68 -22 -1 1 -94 146 -208 322
l-206 320 24 18 c43 31 124 141 160 217 51 106 70 200 64 324 -13 286 -195
522 -473 613 -68 22 -97 26 -200 26 -103 0 -132 -4 -200 -26 -112 -37 -198
-90 -282 -174 -199 -200 -250 -514 -124 -768 156 -313 503 -455 836 -340 42
15 80 24 83 20 4 -3 97 -146 208 -318 l202 -311 -68 -73 c-80 -86 -143 -204
-166 -314 -23 -109 -15 -260 21 -363 15 -43 23 -82 18 -86 -8 -7 -443 -280
-446 -280 -1 0 -32 28 -68 63 -115 110 -241 169 -399 187 -192 22 -384 -42
-529 -176 -119 -111 -190 -245 -213 -403 l-11 -79 -41 -6 c-23 -3 -83 -8 -133
-12 -104 -7 -100 -3 -79 -89 l11 -50 45 0 c25 1 83 3 128 5 l84 5 22 -70 c30
-93 55 -140 114 -213 124 -154 291 -243 486 -258 258 -20 531 135 644 366 57
116 73 184 73 310 0 98 -20 200 -55 281 -6 13 39 45 218 158 123 77 228 141
232 141 3 0 37 -29 75 -64 75 -71 187 -139 262 -158 l47 -12 0 -477 0 -476
-61 -12 c-254 -50 -465 -259 -523 -518 -76 -338 124 -683 457 -788 172 -55
335 -41 506 42 156 75 276 211 339 385 25 67 27 86 27 218 -1 138 -2 149 -31
225 -35 91 -68 148 -129 220 l-42 50 445 580 c244 319 450 588 457 598 13 18
16 18 78 -12 35 -17 97 -38 137 -48 l72 -17 -6 -126 c-3 -69 -9 -281 -12 -472
l-7 -348 -36 -6 c-155 -25 -275 -86 -387 -198 -68 -67 -89 -97 -127 -176 -54
-113 -70 -184 -69 -306 1 -257 143 -483 377 -599 93 -46 180 -65 296 -65 191
0 339 61 475 195 67 66 89 97 127 175 127 259 91 533 -98 754 l-46 54 402 548
c221 302 405 553 410 558 5 5 38 -4 79 -22 38 -18 99 -37 135 -44 l65 -13 0
-447 c0 -417 -1 -447 -17 -451 -10 -3 -43 -11 -73 -17 -318 -71 -552 -405
-511 -730 33 -256 187 -459 420 -554 94 -38 168 -49 288 -44 182 8 309 65 444
199 204 202 255 521 123 780 -13 26 -46 77 -74 113 -31 40 -48 71 -43 79 4 6
209 269 457 582 247 314 451 572 453 574 1 2 33 -10 69 -28 36 -18 96 -39 132
-48 37 -9 73 -17 80 -19 9 -3 12 -102 12 -454 l0 -450 -24 0 c-43 0 -179 -48
-241 -85 -125 -76 -206 -162 -265 -283 -127 -261 -77 -574 125 -776 112 -113
234 -173 400 -197 222 -32 474 73 612 256 195 257 189 600 -15 850 l-49 60
452 588 c249 323 454 589 457 592 3 3 38 -10 79 -29 41 -19 102 -40 137 -47
l62 -13 -5 -391 c-3 -214 -8 -413 -11 -442 l-5 -51 -42 -7 c-157 -24 -325
-122 -419 -243 -109 -140 -149 -258 -149 -432 1 -183 63 -332 196 -466 128
-130 264 -191 445 -201 332 -18 626 210 694 540 37 177 4 351 -96 501 -21 33
-37 62 -36 66 2 4 91 97 198 207 l195 201 35 -25 c116 -83 287 -130 432 -119
548 38 823 677 477 1105 -127 156 -316 243 -529 242 -183 -1 -333 -64 -465
-195 -91 -91 -131 -154 -170 -270 -65 -193 -32 -421 84 -590 17 -24 31 -48 31
-53 0 -4 -89 -97 -198 -206 l-198 -199 -48 33 c-60 40 -165 84 -236 98 l-55
11 2 153 c2 83 6 284 9 445 l6 292 25 0 c45 0 144 30 222 68 97 47 231 175
284 272 61 112 82 197 81 335 0 104 -4 131 -28 200 -41 119 -80 181 -175 275
-135 134 -275 192 -466 194 -124 0 -184 -14 -304 -71 -171 -82 -308 -250 -357
-438 -24 -94 -21 -253 8 -350 28 -94 80 -192 138 -257 26 -30 39 -52 34 -60
-4 -7 -208 -274 -452 -593 -245 -319 -446 -581 -447 -583 -1 -1 -31 11 -66 27
-67 32 -167 61 -206 61 l-23 0 0 450 0 450 28 5 c273 56 459 210 546 454 28
79 31 96 31 216 0 147 -17 216 -82 335 -50 90 -177 215 -270 263 -339 177
-755 43 -924 -298 -116 -236 -84 -526 82 -725 l50 -60 -452 -572 c-248 -315
-457 -579 -463 -586 -10 -10 -27 -6 -87 21 -67 31 -110 44 -191 62 l-28 5 0
448 0 447 67 13 c133 25 259 97 359 205 73 78 113 145 150 252 24 69 28 96 28
200 1 106 -3 130 -28 208 -74 228 -254 394 -496 458 -61 16 -232 16 -300 0
-30 -7 -97 -33 -149 -58 -79 -38 -108 -59 -176 -127 -133 -132 -198 -289 -198
-476 0 -55 7 -122 17 -160 23 -93 87 -216 145 -282 28 -31 51 -59 51 -62 0 -5
-791 -1089 -809 -1109 -4 -4 -37 6 -72 22 -36 16 -94 35 -128 42 l-64 14 7
335 c3 184 9 398 12 476 l7 140 67 12 c424 73 673 557 486 947 -86 181 -224
302 -411 361 -171 54 -333 40 -504 -43 -77 -37 -108 -59 -170 -122 -135 -136
-191 -263 -199 -447 -7 -180 41 -327 151 -464 l53 -65 -444 -580 c-244 -319
-450 -588 -457 -598 -13 -18 -16 -18 -77 11 -64 31 -169 62 -207 62 l-21 0 0
470 0 470 48 0 c79 0 181 28 271 72 157 77 285 228 343 403 19 59 23 91 23
200 0 110 -4 141 -24 200 -28 83 -71 164 -117 222 l-34 42 391 453 c216 249
395 457 399 461 4 5 50 -12 101 -36 111 -53 183 -70 299 -70 116 0 188 17 299
70 79 37 109 59 177 127 68 69 89 98 127 177 56 118 71 179 71 299 0 120 -15
181 -70 297 -91 189 -267 327 -468 365 l-66 13 0 220 0 220 68 13 c37 7 109
33 161 58 78 38 109 61 177 128 68 69 89 98 127 177 56 118 71 179 71 299 0
120 -15 181 -71 299 -81 170 -247 307 -433 356 -59 16 -205 26 -255 19z m-367
-1175 c80 -73 215 -142 315 -161 l67 -13 0 -220 0 -220 -67 -13 c-252 -48
-461 -253 -524 -512 -17 -72 -17 -230 0 -300 19 -78 74 -195 123 -258 28 -38
38 -59 32 -68 -5 -7 -184 -215 -399 -462 l-389 -449 -76 39 c-41 21 -108 46
-147 56 l-73 17 0 40 c0 22 9 288 20 590 11 303 20 578 20 611 l0 62 47 7
c153 23 277 86 388 199 133 136 195 284 195 471 0 99 -24 215 -59 283 l-20 39
237 161 c130 88 239 161 240 161 2 1 34 -26 70 -60z"/>
<path d="M19973 38950 c-258 -40 -461 -206 -551 -452 -24 -66 -26 -86 -26
-218 0 -132 2 -152 26 -218 38 -105 83 -175 163 -257 79 -81 167 -135 283
-173 65 -21 95 -25 197 -25 103 0 132 4 200 26 103 34 192 87 268 160 l59 57
120 -77 c66 -43 123 -78 127 -78 8 0 60 96 61 112 0 6 -52 44 -115 85 -80 50
-114 78 -110 88 2 8 17 49 32 90 24 67 27 89 28 205 0 110 -4 141 -23 200 -94
281 -322 459 -612 478 -41 3 -98 2 -127 -3z"/>
<path d="M1330 38335 l0 -415 1200 0 1200 0 0 415 0 415 -1200 0 -1200 0 0
-415z"/>
<path d="M5250 38335 l0 -415 1200 0 1200 0 0 415 0 415 -1200 0 -1200 0 0
-415z"/>
<path d="M9170 38335 l0 -415 1200 0 1200 0 0 415 0 415 -1200 0 -1200 0 0
-415z"/>
<path d="M13090 38335 l0 -415 1200 0 1200 0 0 415 0 415 -1200 0 -1200 0 0
-415z"/>
<path d="M17333 38140 c-228 -35 -411 -168 -515 -373 -89 -177 -90 -402 -3
-585 154 -325 520 -470 859 -342 131 50 285 185 344 304 13 25 26 46 30 46 4
0 164 -52 355 -116 330 -110 347 -117 341 -137 -14 -41 -7 -220 11 -287 35
-137 119 -267 228 -358 108 -89 284 -152 427 -152 226 0 462 130 571 314 12
20 24 36 29 36 4 0 62 -22 128 -50 66 -27 125 -50 130 -50 8 0 52 104 52 122
0 3 -59 29 -130 59 -96 38 -129 56 -125 67 15 39 27 165 21 226 -10 104 -24
152 -74 256 -76 157 -210 275 -384 338 -67 24 -86 27 -218 27 -132 0 -151 -3
-218 -27 -151 -56 -291 -170 -362 -295 -19 -34 -39 -63 -44 -63 -5 0 -163 50
-352 111 l-341 112 4 106 c6 126 -11 222 -57 319 -88 188 -241 320 -430 371
-89 24 -205 33 -277 21z"/>
<path d="M1330 37025 l0 -415 1200 0 1200 0 0 415 0 415 -1200 0 -1200 0 0
-415z"/>
<path d="M5250 37025 l0 -415 1200 0 1200 0 0 415 0 415 -1200 0 -1200 0 0
-415z"/>
<path d="M9170 37025 l0 -415 1200 0 1200 0 0 415 0 415 -1200 0 -1200 0 0
-415z"/>
<path d="M13090 37025 l0 -415 1200 0 1200 0 0 415 0 415 -1200 0 -1200 0 0
-415z"/>
<path d="M25303 37379 c-243 -27 -455 -191 -547 -421 -72 -183 -60 -400 31
-570 47 -85 63 -100 138 -122 93 -28 202 -89 290 -163 79 -67 81 -68 147 -71
202 -12 443 104 562 272 100 140 142 275 133 436 -10 176 -72 317 -191 435
-92 90 -105 100 -201 145 -115 55 -230 73 -362 59z"/>
<path d="M17802 36440 c-75 -14 -189 -60 -255 -104 -128 -85 -242 -247 -282
-401 -24 -91 -22 -244 4 -340 65 -234 242 -411 476 -476 96 -26 249 -28 340
-4 96 25 215 88 286 153 l64 58 589 -413 589 -413 -84 0 c-75 0 -971 -25
-1190 -33 l-86 -3 -12 60 c-26 124 -114 273 -213 361 -69 60 -213 131 -308
151 -150 32 -322 6 -462 -68 -161 -85 -292 -259 -335 -445 l-17 -73 -271 0
-270 0 -17 79 c-49 237 -217 421 -463 506 -76 27 -254 32 -350 10 -210 -46
-397 -209 -478 -415 -86 -217 -49 -465 97 -657 130 -171 358 -274 576 -260
173 12 309 74 436 201 93 93 152 199 181 324 l17 72 271 0 270 0 17 -77 c41
-199 172 -368 360 -463 109 -55 205 -74 337 -68 180 9 308 66 441 198 106 106
161 215 195 392 4 23 11 28 48 32 23 3 330 13 682 21 352 9 658 20 680 24 l40
7 19 102 c11 56 18 103 15 105 -2 2 -276 194 -609 427 -333 233 -607 425 -609
427 -3 2 5 27 17 56 38 92 52 150 58 242 20 303 -178 588 -473 682 -88 27
-235 38 -321 23z"/>
<path d="M34202 36420 c-298 -78 -501 -343 -502 -656 0 -185 62 -334 195 -470
128 -130 263 -191 445 -201 120 -6 216 13 327 66 107 52 241 181 295 286 65
128 83 196 83 325 0 197 -58 336 -199 475 -93 93 -184 145 -302 175 -101 26
-242 26 -342 0z"/>
<path d="M14138 33540 c-145 -26 -255 -85 -365 -195 -67 -68 -89 -99 -126
-176 -54 -111 -70 -182 -69 -305 1 -303 207 -569 499 -645 273 -71 571 38 727
265 21 30 43 52 50 50 6 -2 513 -222 1126 -488 l1115 -484 -3 -58 c-2 -33 -5
-60 -6 -61 -2 -2 -1934 -33 -2068 -33 -24 0 -28 5 -38 58 -28 134 -110 276
-217 371 -64 57 -208 132 -293 153 -31 7 -104 12 -165 12 -89 -1 -125 -6 -190
-27 -185 -61 -327 -185 -411 -362 -180 -375 37 -833 446 -940 95 -26 244 -24
345 4 250 69 440 276 487 529 l11 62 61 0 c34 0 493 7 1021 15 528 8 974 15
991 15 29 0 32 -3 46 -55 9 -31 13 -57 9 -59 -3 -2 -485 -214 -1071 -471 -586
-257 -1068 -469 -1071 -471 -3 -2 -23 22 -44 52 -89 128 -248 235 -400 269
-96 22 -274 17 -350 -10 -296 -102 -476 -346 -477 -646 0 -118 16 -188 69
-298 37 -77 59 -108 126 -176 92 -92 171 -141 287 -177 107 -33 285 -33 385 0
251 84 420 271 471 522 18 91 15 215 -7 290 -7 22 -10 42 -8 44 2 2 328 145
724 319 396 173 882 386 1079 472 294 129 360 155 367 143 42 -75 170 -187
267 -232 l61 -29 -41 -19 c-115 -51 -241 -172 -302 -287 -109 -209 -113 -419
-12 -626 163 -332 569 -470 901 -306 208 103 349 302 373 526 31 287 -108 548
-362 682 l-70 36 46 22 c196 95 335 284 373 508 l6 37 505 0 c570 0 521 -8
509 85 l-6 55 -505 0 -504 0 -5 28 c-48 225 -178 404 -357 490 -42 20 -77 39
-77 42 -1 3 29 21 67 40 102 52 217 172 270 280 57 116 73 184 73 310 1 190
-64 346 -200 480 -127 126 -288 192 -466 193 -122 0 -192 -16 -305 -70 -79
-38 -108 -59 -176 -127 -90 -91 -130 -154 -170 -271 -24 -70 -27 -95 -27 -205
0 -109 3 -135 26 -205 15 -44 40 -102 56 -128 68 -116 181 -222 290 -274 33
-15 60 -30 60 -33 1 -3 -29 -21 -67 -40 -84 -43 -203 -160 -252 -248 -23 -40
-40 -61 -50 -59 -14 4 -2220 957 -2229 964 -2 1 2 24 10 50 9 30 14 92 13 163
-1 94 -6 129 -27 193 -69 211 -234 377 -442 443 -88 28 -234 39 -317 24z"/>
<path d="M49345 31964 c-11 -2 -45 -9 -75 -15 -73 -14 -201 -77 -273 -134
-108 -86 -203 -242 -233 -385 -21 -99 -14 -250 16 -340 67 -198 203 -346 390
-423 90 -37 150 -49 255 -49 265 -1 488 138 605 376 55 110 74 203 68 335 -8
179 -66 307 -198 442 -62 62 -94 85 -170 122 -128 63 -283 91 -385 71z"/>
<path d="M46935 31844 c-230 -56 -421 -244 -486 -479 -47 -173 -16 -398 75
-529 l20 -29 -26 -21 c-14 -12 -220 -185 -457 -386 -283 -240 -439 -365 -453
-365 -18 0 -24 -8 -30 -40 -13 -74 -10 -94 15 -101 20 -5 89 -112 596 -939 14
-22 11 -26 -50 -88 -78 -78 -131 -165 -166 -272 -23 -68 -27 -98 -27 -200 -1
-138 20 -223 81 -335 49 -89 177 -215 268 -262 293 -153 653 -81 850 170 99
126 147 267 146 431 -2 457 -451 779 -885 634 l-83 -28 -261 424 c-144 234
-260 426 -259 427 1 1 319 -53 707 -120 l705 -122 7 -85 c17 -202 112 -382
262 -496 218 -165 507 -187 746 -56 98 54 216 178 268 282 23 46 42 90 42 97
0 8 5 14 11 14 10 0 404 -74 535 -101 l51 -10 6 -92 c10 -177 73 -315 202
-443 133 -133 282 -194 470 -196 115 0 226 25 312 71 l51 28 259 -330 c142
-182 259 -334 261 -338 2 -4 -19 -35 -46 -68 -55 -68 -101 -157 -129 -247 -28
-91 -25 -276 5 -374 36 -116 85 -196 176 -285 425 -422 1146 -120 1146 480 0
187 -62 337 -195 471 -131 133 -262 192 -445 201 -119 6 -226 -14 -329 -64
-31 -15 -59 -27 -63 -27 -3 -1 -124 149 -267 332 l-260 333 50 62 c62 76 113
180 134 271 20 86 20 243 0 316 -8 30 -15 58 -15 61 0 4 120 71 268 150 147
78 274 147 283 152 12 8 33 -8 100 -75 145 -147 280 -203 484 -203 106 0 131
3 209 29 270 89 449 325 463 611 10 197 -54 363 -197 505 -136 137 -286 200
-476 200 -189 0 -338 -62 -474 -199 -194 -196 -248 -439 -159 -719 3 -8 -93
-66 -271 -162 -151 -82 -280 -149 -286 -150 -7 0 -20 12 -30 27 -53 82 -159
172 -260 222 -105 51 -168 65 -299 65 -103 0 -131 -4 -200 -27 -44 -15 -108
-43 -143 -64 -118 -70 -236 -206 -278 -321 -10 -26 -21 -51 -25 -55 -6 -7
-247 34 -545 94 l-51 10 -1 74 c-3 248 -149 477 -377 590 -186 92 -428 88
-615 -11 -133 -70 -270 -225 -315 -358 -16 -47 -22 -55 -39 -51 -12 3 -325 57
-696 120 -371 64 -685 119 -697 123 -19 6 35 55 389 354 l411 347 46 -39 c359
-298 924 -127 1066 323 55 172 41 335 -42 506 -84 175 -254 311 -443 356 -81
18 -245 18 -325 -1z"/>
<path d="M36553 31311 c-96 -35 -158 -76 -244 -161 -74 -73 -93 -99 -132 -180
-54 -113 -68 -174 -68 -295 0 -190 66 -350 197 -480 l51 -50 -116 -1 c-102 0
-126 -4 -202 -31 -173 -60 -305 -177 -385 -338 -57 -116 -77 -211 -71 -335 9
-171 73 -318 188 -430 92 -91 114 -107 196 -146 185 -89 419 -85 602 11 392
206 484 731 185 1054 l-63 68 117 5 c192 8 317 63 452 198 160 159 229 384
186 599 -37 182 -141 341 -286 437 -43 28 -45 29 -204 30 -159 0 -218 11 -336
57 -8 4 -38 -2 -67 -12z"/>
<path d="M17761 28805 c-230 -50 -424 -230 -497 -460 -54 -171 -40 -333 43
-504 75 -157 214 -279 385 -338 99 -34 254 -43 360 -19 250 56 450 248 513
496 15 57 22 218 13 283 -3 16 80 45 614 215 339 108 620 200 623 204 10 10
-17 119 -30 124 -6 3 -288 -83 -625 -191 -338 -107 -619 -195 -625 -195 -5 0
-23 24 -38 54 -131 251 -447 393 -736 331z"/>
<path d="M48764 28546 c-253 -58 -461 -261 -519 -506 -57 -248 39 -532 233
-682 140 -109 258 -149 432 -149 184 1 333 63 466 196 130 129 191 264 201
445 20 377 -267 690 -647 705 -69 3 -126 0 -166 -9z"/>
<path d="M45071 27768 c-17 -46 -34 -108 -30 -111 3 -3 1568 -563 1697 -608
23 -8 31 -16 27 -27 -16 -43 -17 -192 -1 -272 44 -216 174 -385 371 -481 197
-96 429 -89 625 19 83 45 216 178 255 253 l29 56 585 -197 586 -198 -3 -118
c-3 -95 1 -135 17 -197 79 -302 344 -507 655 -507 187 0 340 63 472 195 130
130 191 264 201 445 7 124 -13 218 -71 335 -171 346 -594 476 -936 287 -80
-44 -206 -167 -250 -244 -17 -32 -35 -58 -39 -58 -4 0 -268 87 -587 194 -556
186 -579 194 -577 217 6 77 2 221 -7 267 -56 260 -273 473 -531 522 -76 15
-215 12 -289 -5 -160 -38 -321 -153 -410 -294 -31 -49 -50 -69 -60 -65 -8 3
-392 140 -852 305 -461 165 -844 302 -852 305 -11 4 -19 -2 -25 -18z"/>
<path d="M15490 27601 c-159 -22 -283 -83 -395 -196 -132 -132 -198 -288 -199
-475 0 -119 14 -180 71 -300 39 -81 58 -107 132 -180 93 -92 184 -145 304
-178 114 -31 295 -20 411 24 10 4 34 -33 85 -129 l71 -134 -88 -89 c-101 -102
-151 -187 -182 -310 -24 -94 -26 -232 -5 -324 53 -225 237 -421 460 -490 86
-26 229 -36 309 -21 47 9 61 8 68 -1 4 -7 25 -60 47 -118 21 -58 48 -128 59
-156 l20 -51 -411 105 c-227 57 -601 152 -832 211 l-420 106 -6 120 c-7 134
-28 214 -81 308 -178 317 -569 438 -894 276 -157 -77 -288 -229 -340 -393
-135 -427 161 -859 607 -883 122 -7 224 14 339 70 113 55 237 176 294 287 22
41 40 76 41 78 4 4 1549 -389 1557 -396 4 -4 -356 -215 -799 -468 l-806 -462
-36 42 c-206 240 -552 306 -834 159 -108 -56 -230 -182 -284 -293 -177 -363
-14 -787 357 -933 381 -150 821 85 906 484 21 100 14 259 -16 354 -12 38 -18
71 -14 72 5 2 374 212 819 468 789 452 810 463 813 437 1 -15 -24 -342 -58
-727 -33 -385 -60 -706 -60 -712 0 -8 -14 -13 -38 -13 -64 0 -188 -37 -274
-82 -145 -75 -271 -225 -319 -378 -103 -332 41 -672 347 -821 320 -156 693
-41 880 269 59 98 87 200 88 327 1 134 -12 192 -72 315 -79 162 -223 285 -396
340 -62 20 -76 28 -76 45 1 11 29 343 63 737 l62 717 515 -590 c283 -325 525
-603 538 -619 l23 -29 -41 -53 c-91 -120 -134 -251 -134 -408 0 -191 62 -338
198 -476 68 -68 97 -89 176 -127 119 -57 180 -71 300 -71 120 0 181 15 299 71
79 38 108 59 177 127 68 68 90 98 127 177 54 111 70 182 70 304 0 116 -14 178
-70 294 -38 79 -59 108 -127 177 -69 68 -98 89 -177 127 -121 58 -181 72 -304
71 -133 -1 -257 -36 -357 -101 -27 -17 -29 -17 -47 2 -54 57 -1071 1229 -1071
1235 0 4 129 62 288 129 158 68 969 414 1802 771 833 356 1586 678 1673 715
86 37 157 69 157 71 0 3 -13 31 -30 64 l-30 59 -72 -31 c-75 -31 -1276 -545
-2663 -1138 -434 -186 -877 -375 -983 -421 -157 -66 -196 -79 -203 -68 -4 8
-26 61 -48 119 -22 58 -51 135 -65 171 l-25 66 70 48 c126 86 214 202 265 350
25 70 28 95 28 205 1 104 -3 138 -22 200 -36 116 -85 196 -176 285 -91 90
-200 152 -316 180 -94 21 -229 19 -329 -6 -45 -11 -84 -19 -86 -17 -2 1 -34
61 -72 131 l-69 129 91 91 c140 141 198 279 199 472 1 123 -13 183 -71 304
-38 79 -59 108 -127 177 -68 68 -98 90 -177 127 -125 61 -258 84 -379 68z"/>
<path d="M19730 27473 c-185 -17 -327 -87 -452 -222 -111 -120 -166 -250 -175
-416 -16 -314 172 -586 472 -681 239 -76 498 -12 674 165 85 85 130 155 169
263 23 64 27 88 27 193 0 144 -13 201 -71 320 -71 145 -167 245 -299 310 -99
49 -245 78 -345 68z"/>
<path d="M44549 26413 c-34 -79 -40 -95 -30 -89 9 6 1174 -251 8510 -1875
1465 -324 2665 -589 2667 -589 2 0 4 -38 4 -83 0 -304 211 -574 510 -652 41
-11 103 -18 165 -18 264 0 487 140 606 378 95 192 92 403 -7 604 -79 161 -218
278 -399 338 -66 22 -99 26 -190 27 -164 1 -279 -35 -410 -129 -96 -68 -192
-190 -226 -287 -7 -21 -19 -38 -25 -38 -7 0 -307 65 -666 144 -1384 306 -7506
1661 -8949 1980 -834 185 -1522 336 -1528 336 -6 0 -21 -21 -32 -47z"/>
<path d="M44459 26218 c-17 -33 -29 -61 -27 -63 5 -4 1935 -962 2200 -1092
131 -64 235 -120 232 -124 -9 -16 -5 -204 6 -259 16 -76 90 -224 142 -286 111
-131 271 -219 432 -239 l56 -7 36 -68 c91 -174 265 -306 454 -346 158 -33 363
0 488 79 l53 33 67 -33 c90 -44 175 -64 285 -67 l92 -2 71 -55 71 -55 -27 -35
c-125 -156 -173 -390 -121 -591 59 -228 225 -399 459 -476 63 -20 98 -25 193
-25 l116 -1 34 -65 c22 -42 64 -97 119 -152 69 -70 101 -94 170 -127 112 -55
185 -73 300 -73 173 -1 292 40 432 149 194 150 291 433 233 682 -54 230 -243
425 -480 496 -42 13 -94 18 -176 19 l-116 0 -29 55 c-117 224 -347 364 -599
365 -121 0 -200 -19 -311 -76 l-93 -47 -35 26 c-20 14 -36 28 -36 31 0 3 30
22 68 41 45 23 94 61 148 115 68 68 89 97 127 176 58 120 72 180 71 304 0 189
-59 330 -194 466 -129 130 -259 192 -434 205 -132 10 -295 -31 -406 -103 l-35
-22 -60 29 c-62 31 -199 70 -244 70 -22 0 -32 11 -66 78 -46 90 -158 208 -247
260 -142 84 -331 113 -492 78 -190 -43 -369 -180 -454 -349 l-27 -54 -1135
565 c-624 310 -1168 579 -1208 597 l-72 34 -31 -61z"/>
<path d="M44190 25681 l-30 -61 74 -48 c1037 -663 1335 -858 1329 -872 -51
-121 -58 -155 -58 -295 0 -127 3 -147 27 -213 39 -107 83 -177 168 -262 159
-160 383 -230 599 -186 383 78 624 452 531 822 -33 132 -81 216 -179 315 -73
74 -100 93 -181 132 -111 53 -177 68 -298 68 -187 0 -346 -65 -478 -197 l-51
-51 -699 450 c-384 247 -704 452 -711 454 -7 3 -25 -21 -43 -56z"/>
<path d="M45320 23814 c-83 -18 -209 -80 -283 -138 -145 -116 -247 -332 -247
-521 0 -92 28 -203 77 -304 37 -77 59 -108 122 -170 133 -132 261 -190 442
-198 224 -11 422 75 561 244 125 151 179 372 139 568 -17 82 -89 229 -142 291
-168 195 -422 282 -669 228z"/>
<path d="M47460 23724 c-88 -10 -170 -27 -233 -50 -311 -108 -546 -374 -613
-693 -21 -101 -21 -284 1 -386 77 -367 379 -662 741 -726 38 -7 72 -15 75 -18
4 -3 10 -181 13 -396 l7 -390 -35 70 c-85 169 -249 301 -436 350 -95 26 -244
24 -345 -4 -224 -62 -384 -216 -466 -449 -29 -80 -36 -252 -15 -350 67 -317
381 -553 703 -528 250 19 459 162 568 388 l32 67 7 -507 c3 -279 9 -580 12
-669 l6 -162 -28 -6 c-231 -46 -405 -175 -499 -370 -115 -237 -94 -485 60
-700 101 -142 245 -229 448 -270 l27 -5 -2 -272 -3 -271 -60 -13 c-243 -50
-433 -220 -512 -459 -23 -68 -27 -98 -27 -200 -1 -107 2 -130 28 -209 56 -171
184 -320 340 -396 76 -37 178 -70 218 -70 17 0 18 -17 18 -273 l0 -272 -80
-18 c-198 -45 -371 -182 -460 -365 -51 -106 -64 -167 -64 -297 0 -103 4 -131
27 -200 36 -108 89 -195 168 -274 79 -79 166 -132 274 -168 112 -37 284 -39
395 -5 116 36 195 85 286 177 133 133 194 282 196 470 2 321 -215 595 -526
662 l-76 17 0 270 0 271 80 18 c245 55 442 248 505 496 21 82 21 245 0 326
-39 152 -149 309 -276 396 -72 48 -193 98 -259 106 l-50 6 0 273 0 274 28 5
c87 19 125 31 197 65 208 99 348 298 374 531 39 345 -190 662 -530 735 l-77
17 -6 181 c-3 100 -8 397 -12 661 l-6 480 36 -70 c108 -214 318 -353 560 -371
114 -9 225 14 345 73 177 85 314 257 356 448 25 111 17 274 -17 373 -14 39
-25 72 -24 72 5 0 961 -1003 964 -1011 2 -4 -12 -29 -31 -56 -82 -115 -120
-238 -120 -388 1 -264 142 -490 378 -605 378 -184 824 14 946 420 17 57 23
102 23 189 l1 114 202 58 c286 81 252 80 290 7 60 -117 159 -216 275 -278 32
-17 58 -34 58 -38 0 -4 -35 -124 -78 -267 l-78 -260 -105 3 c-125 4 -225 -18
-339 -75 -104 -52 -231 -179 -283 -283 -101 -203 -103 -421 -5 -619 60 -121
178 -240 298 -299 195 -96 411 -97 608 -1 70 34 102 58 172 128 142 143 205
301 198 499 -2 75 0 93 12 97 8 2 105 29 215 60 110 31 207 58 216 61 11 3 25
-14 50 -63 45 -89 179 -226 267 -272 54 -28 62 -36 56 -54 -8 -28 -50 -162
-109 -350 -42 -133 -48 -147 -66 -142 -32 11 -195 7 -256 -5 -32 -6 -101 -32
-153 -57 -79 -38 -109 -59 -176 -127 -130 -131 -191 -265 -201 -446 -28 -511
513 -866 972 -638 33 17 75 42 94 55 l33 26 177 -177 c154 -155 174 -178 164
-193 -35 -51 -84 -145 -104 -203 -31 -88 -34 -314 -6 -400 48 -144 131 -263
237 -344 127 -95 258 -138 420 -137 115 0 188 18 300 73 104 50 227 167 283
268 61 111 82 197 82 335 0 163 -32 262 -132 402 -123 175 -363 286 -583 269
-128 -9 -260 -56 -349 -123 l-33 -26 -177 177 c-154 155 -174 178 -164 193 38
54 88 152 106 206 14 44 21 99 25 192 l4 131 207 57 c113 32 216 60 227 63 18
5 27 -4 53 -53 120 -225 348 -363 601 -363 496 0 822 515 611 965 -155 331
-567 479 -896 321 -247 -118 -387 -341 -389 -620 l-1 -108 -225 -64 c-124 -35
-228 -64 -231 -64 -3 0 -16 23 -28 50 -50 111 -154 220 -277 290 -66 38 -69 4
29 315 l72 230 60 -7 c76 -9 215 6 290 32 98 34 186 89 261 165 132 133 196
288 195 475 0 126 -16 194 -73 310 -61 124 -170 231 -299 293 -122 58 -181 72
-309 71 -188 -1 -328 -60 -466 -198 -141 -141 -198 -279 -199 -477 l0 -115
-230 -65 -230 -64 -35 70 c-45 91 -169 217 -262 269 -38 21 -68 41 -68 44 0 4
35 124 78 266 l78 260 109 -3 c202 -4 350 54 491 194 130 128 191 264 201 445
7 126 -13 218 -73 340 -147 296 -495 439 -814 334 -165 -55 -313 -183 -389
-337 -54 -109 -73 -195 -70 -320 l2 -100 -224 -63 c-123 -35 -227 -64 -231
-64 -3 0 -25 35 -49 78 -27 51 -66 101 -113 147 -132 128 -260 185 -439 193
-161 7 -285 -24 -402 -102 l-50 -33 -410 429 c-225 236 -426 447 -445 470
l-35 41 33 -17 c62 -32 181 -56 277 -56 325 0 595 217 665 535 16 70 13 230
-5 300 -58 226 -238 416 -460 485 -158 49 -338 35 -490 -38 -314 -151 -467
-531 -340 -846 14 -34 18 -53 10 -45 -7 8 -142 149 -298 313 l-285 300 55 55
c111 111 202 270 244 426 33 119 32 346 0 465 -92 342 -358 602 -693 679 -85
20 -225 32 -288 25z m919 -2102 c191 -199 193 -202 140 -177 -130 59 -315 76
-447 41 -203 -54 -381 -207 -457 -393 l-22 -53 -6 257 c-4 141 -7 322 -7 403
l0 148 78 11 c101 15 221 53 302 96 l65 34 80 -82 c44 -46 167 -174 274 -285z"/>
<path d="M21381 22990 l-884 -658 -43 40 c-259 242 -675 235 -927 -15 -207
-207 -262 -504 -141 -766 27 -58 31 -77 22 -88 -9 -12 -15 -10 -37 10 -14 13
-48 39 -74 56 -273 184 -628 151 -857 -79 -130 -130 -188 -260 -197 -437 -9
-156 18 -265 98 -397 22 -37 39 -69 37 -70 -2 -1 -158 -111 -346 -244 l-344
-242 -59 54 c-114 106 -255 164 -419 173 -126 7 -218 -13 -340 -73 -165 -82
-290 -233 -346 -419 -14 -45 -18 -92 -18 -185 0 -108 4 -136 27 -206 55 -166
185 -317 340 -393 104 -51 188 -71 303 -71 313 0 579 208 659 515 32 126 12
334 -45 445 -12 23 -19 44 -17 47 3 2 164 116 357 253 l352 249 57 -38 c114
-77 233 -112 373 -112 120 0 187 15 293 66 231 112 369 316 382 570 6 124 -12
217 -64 327 -48 103 -37 118 41 55 125 -103 239 -147 397 -154 267 -14 497
113 632 347 101 177 106 426 12 622 l-23 48 456 339 c251 187 457 339 458 338
1 -1 175 -212 387 -470 l386 -467 -50 -66 c-93 -123 -128 -220 -136 -375 -16
-296 145 -551 417 -662 90 -37 149 -48 254 -48 121 0 183 14 291 66 147 71
256 180 322 323 89 191 84 395 -13 592 -66 133 -162 229 -294 293 -207 101
-412 101 -614 0 -58 -29 -71 -33 -80 -21 -6 8 -177 216 -381 462 -203 246
-370 452 -370 456 0 5 168 133 373 285 204 152 372 281 372 287 0 15 -71 98
-84 97 -6 0 -409 -297 -895 -659z"/>
<path d="M45570 22405 c-36 -8 -108 -35 -160 -61 -237 -118 -381 -367 -367
-634 10 -182 71 -317 201 -445 136 -133 284 -195 471 -195 378 0 675 297 675
675 0 187 -62 335 -195 471 -132 134 -266 193 -455 200 -69 2 -127 -1 -170
-11z"/>
<path d="M41391 22074 l-50 -49 183 -210 183 -209 -40 -51 c-54 -68 -103 -172
-123 -262 -21 -94 -15 -274 11 -348 78 -223 228 -374 450 -450 30 -11 94 -20
162 -23 133 -5 225 12 330 62 l71 34 138 -176 c77 -97 140 -179 142 -183 2 -3
-17 -30 -42 -58 -165 -194 -202 -486 -93 -716 86 -178 227 -303 410 -360 172
-55 335 -41 506 42 156 75 276 211 339 385 25 67 27 85 26 218 0 137 -2 149
-31 226 -130 342 -472 517 -828 423 -22 -6 -70 -25 -106 -43 l-66 -33 -134
170 c-74 93 -138 176 -142 183 -6 10 5 29 33 62 92 103 147 246 158 404 l7 93
200 31 c110 17 201 31 201 30 1 0 9 -24 18 -51 27 -83 86 -175 161 -250 80
-80 151 -125 257 -163 67 -24 86 -27 218 -27 132 0 151 3 218 27 105 38 176
83 257 163 81 79 135 167 173 283 32 98 36 261 8 362 -53 196 -182 353 -361
440 -282 137 -612 65 -815 -177 -90 -108 -134 -214 -154 -375 l-11 -93 -200
-32 c-110 -18 -201 -28 -203 -23 -18 50 -90 177 -127 223 -127 159 -355 258
-565 244 -100 -7 -225 -43 -293 -87 -26 -16 -49 -30 -52 -30 -2 0 -79 87 -171
193 -92 105 -175 201 -185 211 -17 18 -19 18 -68 -30z"/>
<path d="M40250 20963 c-79 -13 -204 -64 -274 -112 -50 -34 -136 -123 -175
-181 -43 -63 -86 -162 -102 -235 -24 -109 -9 -290 34 -395 5 -11 -24 -32 -116
-82 -67 -37 -149 -83 -183 -102 l-61 -34 -158 276 c-86 153 -159 278 -160 280
-6 7 -115 -61 -115 -71 1 -7 155 -281 343 -611 l342 -598 -81 -82 c-67 -67
-89 -97 -127 -176 -53 -111 -69 -182 -69 -300 0 -252 142 -486 360 -595 103
-52 162 -67 282 -72 141 -6 218 10 340 69 158 78 294 244 344 421 125 437
-230 880 -684 853 -52 -3 -120 -12 -150 -21 -30 -9 -64 -19 -75 -21 -17 -4
-42 33 -167 254 -82 143 -148 263 -148 268 0 5 79 53 176 107 l176 98 66 -69
c76 -79 147 -127 245 -166 96 -38 167 -49 287 -44 178 8 307 66 441 199 177
174 240 435 165 674 -74 233 -268 410 -505 461 -62 13 -194 17 -251 7z"/>
<path d="M25610 20487 l-85 -123 -62 27 c-126 58 -335 69 -468 26 -273 -89
-455 -323 -471 -607 -8 -124 11 -210 71 -335 74 -153 193 -266 345 -328 99
-40 146 -49 255 -50 107 0 218 24 298 64 177 89 318 265 361 449 20 83 20 237
1 320 -23 96 -86 215 -154 291 l-59 65 89 129 89 129 -52 33 c-29 18 -57 33
-63 33 -5 0 -48 -55 -95 -123z"/>
<path d="M28605 19268 c-2 -7 -49 -141 -104 -297 -55 -156 -102 -285 -103
-286 -2 -2 -32 2 -68 7 -330 48 -657 -172 -746 -504 -21 -77 -23 -241 -5 -318
7 -30 33 -97 58 -149 38 -79 59 -108 127 -176 131 -131 288 -197 471 -198 120
-1 192 16 304 70 79 37 109 59 177 127 68 69 89 98 127 177 25 52 51 119 58
149 17 71 17 230 0 300 -43 177 -152 328 -307 427 l-62 39 104 295 c57 161
104 299 104 305 0 6 -27 18 -60 27 -71 20 -70 20 -75 5z"/>
<path d="M35637 19035 c-27 -7 -51 -16 -54 -18 -3 -3 12 -84 32 -179 20 -95
37 -179 38 -186 1 -7 -20 -23 -48 -34 -82 -35 -181 -105 -240 -171 -102 -113
-175 -302 -175 -452 0 -123 58 -303 126 -393 l26 -33 -90 -97 c-50 -53 -117
-124 -151 -156 l-60 -59 -48 31 c-125 80 -235 113 -378 113 -188 0 -348 -65
-476 -193 -141 -141 -206 -313 -196 -517 8 -180 66 -309 197 -442 62 -62 94
-85 170 -122 208 -102 402 -101 610 1 133 65 228 160 294 292 60 123 80 214
73 345 -7 136 -50 257 -133 371 -14 21 -9 28 136 177 l150 155 68 -44 c107
-71 201 -97 357 -100 l130 -3 81 -271 81 -270 -71 -38 c-109 -56 -211 -163
-270 -282 -60 -122 -80 -214 -73 -340 10 -175 72 -316 191 -436 39 -38 86 -81
105 -95 l33 -24 -352 -520 c-193 -286 -357 -519 -363 -518 -7 1 -44 14 -83 28
-92 32 -202 48 -279 40 -198 -21 -372 -114 -481 -258 -289 -382 -123 -916 331
-1064 68 -22 98 -26 200 -26 102 0 132 4 200 26 132 43 251 124 330 225 160
204 190 494 74 723 -35 71 -106 167 -144 197 l-25 20 361 533 c260 386 365
533 377 531 147 -21 162 -26 162 -51 0 -13 14 -211 31 -439 16 -228 27 -418
22 -422 -4 -3 -35 -14 -68 -24 -109 -33 -194 -85 -280 -171 -134 -133 -196
-280 -198 -465 -1 -130 12 -189 70 -309 81 -170 248 -307 433 -357 80 -21 245
-24 320 -5 248 61 440 248 506 491 24 87 24 253 0 340 -51 186 -187 352 -357
433 -98 47 -164 67 -221 67 -18 0 -38 4 -45 8 -8 5 -22 144 -42 423 -38 505
-37 469 -8 469 27 0 118 30 164 53 l30 16 190 -227 c104 -125 317 -379 472
-564 l282 -338 -39 -47 c-300 -361 -130 -926 321 -1068 173 -55 337 -41 506
41 165 81 301 242 346 409 l17 61 52 -3 c28 -2 357 -19 731 -38 374 -19 717
-37 763 -41 l82 -6 0 -28 c0 -95 75 -276 152 -366 127 -149 291 -231 483 -241
130 -7 222 13 340 71 105 52 177 113 240 201 199 279 173 639 -65 875 -86 85
-156 130 -262 167 -63 23 -90 27 -198 27 -69 1 -138 -1 -154 -4 -29 -5 -30 -3
-57 70 -305 835 -509 1397 -509 1405 0 5 28 26 62 45 35 19 97 69 138 110 208
206 257 510 126 775 -80 162 -224 287 -391 342 -105 33 -249 41 -355 19 -137
-29 -284 -118 -374 -225 l-33 -40 -633 364 c-348 200 -636 367 -641 372 -5 5
1 37 13 73 29 93 36 254 13 354 -55 251 -260 456 -511 512 -107 23 -262 15
-362 -19 -228 -79 -399 -271 -446 -502 l-13 -60 -241 -3 -242 -2 0 32 c-1 82
-49 216 -111 309 -126 188 -332 298 -559 299 l-76 0 -39 187 c-30 139 -44 188
-55 190 -8 1 -37 -5 -63 -12z m1388 -1172 c56 -275 210 -461 454 -547 79 -28
97 -30 216 -31 110 0 141 4 200 23 108 36 193 88 278 172 l78 76 631 -362
c346 -199 634 -366 640 -372 6 -6 4 -22 -5 -44 -25 -59 -38 -139 -38 -233 0
-120 14 -183 66 -290 70 -145 169 -246 310 -316 107 -53 203 -72 332 -67 86 4
103 2 109 -11 24 -60 534 -1464 534 -1471 0 -4 -17 -18 -37 -30 -156 -91 -279
-253 -316 -416 l-14 -59 -59 2 c-127 3 -1520 75 -1540 79 -18 3 -22 13 -27 71
-9 115 -63 245 -142 346 -181 230 -516 315 -789 199 -34 -14 -73 -34 -87 -43
-26 -18 -26 -18 -51 9 -30 31 -908 1082 -908 1086 0 1 20 24 45 50 90 97 150
215 175 344 l13 62 228 0 229 0 0 -24 c0 -14 11 -60 25 -103 88 -281 350 -473
645 -473 306 0 577 211 655 510 37 137 16 339 -46 463 -65 128 -182 246 -304
306 -206 102 -459 93 -655 -22 -92 -54 -199 -169 -248 -267 -44 -87 -72 -173
-72 -222 l0 -28 -229 0 -229 0 -17 75 c-27 122 -85 226 -179 321 -91 91 -170
140 -286 176 -61 19 -97 23 -198 23 l-123 0 -20 70 c-11 39 -48 160 -81 270
-52 175 -58 200 -44 210 8 5 43 25 76 44 144 82 279 267 306 420 4 20 9 39 11
44 2 4 112 7 243 7 l240 0 5 -27z"/>
<path d="M31715 18558 c9 -237 25 -830 25 -925 l0 -88 -57 -14 c-305 -70 -522
-340 -524 -651 -1 -228 98 -428 274 -555 l29 -21 -89 -43 c-175 -87 -319 -271
-359 -462 -22 -104 -14 -250 19 -351 l25 -78 -182 0 -183 0 -17 80 c-27 128
-85 230 -185 330 -69 69 -103 94 -171 127 -344 167 -740 35 -906 -302 -58
-117 -78 -211 -71 -335 13 -246 154 -462 370 -569 104 -51 188 -71 303 -71
316 0 591 219 659 525 l17 75 227 0 227 0 44 -46 c308 -315 842 -251 1068 129
111 186 122 437 28 633 -47 98 -145 216 -218 261 l-26 16 90 45 c73 35 107 60
173 126 92 91 141 170 177 286 34 111 32 283 -5 395 -15 44 -43 109 -64 144
-49 81 -152 185 -234 234 -62 36 -184 79 -261 92 l-38 6 0 107 c-1 224 -27
1020 -34 1031 -4 6 -34 11 -72 11 l-64 0 5 -142z"/>
<path d="M20942 17319 c-143 -22 -269 -87 -377 -194 -80 -80 -123 -148 -162
-255 -25 -69 -28 -87 -28 -220 0 -132 3 -151 27 -218 39 -107 83 -177 168
-262 61 -62 93 -85 170 -122 122 -60 180 -73 315 -71 130 1 225 27 334 92 374
222 442 742 136 1052 -127 128 -265 191 -445 203 -41 2 -103 0 -138 -5z"/>
<path d="M22590 17279 c-151 -17 -298 -92 -398 -205 -60 -67 -134 -210 -151
-292 -15 -75 -13 -206 4 -280 51 -215 221 -394 440 -462 90 -28 241 -30 335
-5 214 56 378 210 447 420 22 68 27 98 27 195 0 100 -4 125 -28 195 -101 293
-374 468 -676 434z"/>
<path d="M19132 17254 c-217 -58 -382 -201 -465 -404 -73 -177 -62 -399 30
-573 49 -93 174 -221 263 -270 112 -61 197 -82 335 -82 135 1 196 15 304 70
139 71 240 177 308 323 49 104 66 196 60 312 -10 181 -71 317 -201 445 -137
136 -285 196 -480 194 -56 0 -125 -7 -154 -15z"/>
</g>
</svg>
