<svg preserveAspectRatio="none"
          className="absolute inset-0 w-full h-fit pointer-events-none" id="visual" viewBox="0 0 2000 600" width="2000" height="600" xmlns="http://www.w3.org/2000/svg" xmlnsXlink="http://www.w3.org/1999/xlink" version="1.1"><path d="M0 253L47.7 254.5C95.3 256 190.7 259 285.8 253.8C381 248.7 476 235.3 571.2 225.8C666.3 216.3 761.7 210.7 857 216.2C952.3 221.7 1047.7 238.3 1143 238.3C1238.3 238.3 1333.7 221.7 1428.8 215C1524 208.3 1619 211.7 1714.2 205.2C1809.3 198.7 1904.7 182.3 1952.3 174.2L2000 166L2000 601L1952.3 601C1904.7 601 1809.3 601 1714.2 601C1619 601 1524 601 1428.8 601C1333.7 601 1238.3 601 1143 601C1047.7 601 952.3 601 857 601C761.7 601 666.3 601 571.2 601C476 601 381 601 285.8 601C190.7 601 95.3 601 47.7 601L0 601Z" fill="#fa7268"></path><path d="M0 277L47.7 283.3C95.3 289.7 190.7 302.3 285.8 305.5C381 308.7 476 302.3 571.2 290.7C666.3 279 761.7 262 857 255.7C952.3 249.3 1047.7 253.7 1143 267.3C1238.3 281 1333.7 304 1428.8 317.7C1524 331.3 1619 335.7 1714.2 319.5C1809.3 303.3 1904.7 266.7 1952.3 248.3L2000 230L2000 601L1952.3 601C1904.7 601 1809.3 601 1714.2 601C1619 601 1524 601 1428.8 601C1333.7 601 1238.3 601 1143 601C1047.7 601 952.3 601 857 601C761.7 601 666.3 601 571.2 601C476 601 381 601 285.8 601C190.7 601 95.3 601 47.7 601L0 601Z" fill="#ed6266"></path><path d="M0 339L47.7 342.7C95.3 346.3 190.7 353.7 285.8 361.5C381 369.3 476 377.7 571.2 380.3C666.3 383 761.7 380 857 368.2C952.3 356.3 1047.7 335.7 1143 323C1238.3 310.3 1333.7 305.7 1428.8 317.3C1524 329 1619 357 1714.2 365.8C1809.3 374.7 1904.7 364.3 1952.3 359.2L2000 354L2000 601L1952.3 601C1904.7 601 1809.3 601 1714.2 601C1619 601 1524 601 1428.8 601C1333.7 601 1238.3 601 1143 601C1047.7 601 952.3 601 857 601C761.7 601 666.3 601 571.2 601C476 601 381 601 285.8 601C190.7 601 95.3 601 47.7 601L0 601Z" fill="#df5265"></path><path d="M0 429L47.7 424.2C95.3 419.3 190.7 409.7 285.8 400.5C381 391.3 476 382.7 571.2 386.7C666.3 390.7 761.7 407.3 857 411C952.3 414.7 1047.7 405.3 1143 404.5C1238.3 403.7 1333.7 411.3 1428.8 417.3C1524 423.3 1619 427.7 1714.2 427.7C1809.3 427.7 1904.7 423.3 1952.3 421.2L2000 419L2000 601L1952.3 601C1904.7 601 1809.3 601 1714.2 601C1619 601 1524 601 1428.8 601C1333.7 601 1238.3 601 1143 601C1047.7 601 952.3 601 857 601C761.7 601 666.3 601 571.2 601C476 601 381 601 285.8 601C190.7 601 95.3 601 47.7 601L0 601Z" fill="#d04263"></path><path d="M0 453L47.7 455C95.3 457 190.7 461 285.8 467.5C381 474 476 483 571.2 477.7C666.3 472.3 761.7 452.7 857 452.5C952.3 452.3 1047.7 471.7 1143 470.2C1238.3 468.7 1333.7 446.3 1428.8 442.8C1524 439.3 1619 454.7 1714.2 465.2C1809.3 475.7 1904.7 481.3 1952.3 484.2L2000 487L2000 601L1952.3 601C1904.7 601 1809.3 601 1714.2 601C1619 601 1524 601 1428.8 601C1333.7 601 1238.3 601 1143 601C1047.7 601 952.3 601 857 601C761.7 601 666.3 601 571.2 601C476 601 381 601 285.8 601C190.7 601 95.3 601 47.7 601L0 601Z" fill="#c13361"></path><path d="M0 520L47.7 518.2C95.3 516.3 190.7 512.7 285.8 510.3C381 508 476 507 571.2 507C666.3 507 761.7 508 857 509.5C952.3 511 1047.7 513 1143 514C1238.3 515 1333.7 515 1428.8 516C1524 517 1619 519 1714.2 516.8C1809.3 514.7 1904.7 508.3 1952.3 505.2L2000 502L2000 601L1952.3 601C1904.7 601 1809.3 601 1714.2 601C1619 601 1524 601 1428.8 601C1333.7 601 1238.3 601 1143 601C1047.7 601 952.3 601 857 601C761.7 601 666.3 601 571.2 601C476 601 381 601 285.8 601C190.7 601 95.3 601 47.7 601L0 601Z" fill="#b0235f"></path></svg>