<svg id="visual" viewBox="0 0 2000 540" width="2000" height="540" xmlns="http://www.w3.org/2000/svg" xmlns:xlink="http://www.w3.org/1999/xlink" version="1.1"><rect x="0" y="0" width="2000" height="540" fill="#B0235F"></rect><path d="M0 274L41.7 287C83.3 300 166.7 326 250 334.2C333.3 342.3 416.7 332.7 500 324.5C583.3 316.3 666.7 309.7 750 306.5C833.3 303.3 916.7 303.7 1000 313.5C1083.3 323.3 1166.7 342.7 1250 351.5C1333.3 360.3 1416.7 358.7 1500 358.3C1583.3 358 1666.7 359 1750 365.3C1833.3 371.7 1916.7 383.3 1958.3 389.2L2000 395L2000 0L1958.3 0C1916.7 0 1833.3 0 1750 0C1666.7 0 1583.3 0 1500 0C1416.7 0 1333.3 0 1250 0C1166.7 0 1083.3 0 1000 0C916.7 0 833.3 0 750 0C666.7 0 583.3 0 500 0C416.7 0 333.3 0 250 0C166.7 0 83.3 0 41.7 0L0 0Z" fill="#b0235f"></path><path d="M0 233L41.7 254.2C83.3 275.3 166.7 317.7 250 328.7C333.3 339.7 416.7 319.3 500 303.7C583.3 288 666.7 277 750 288.2C833.3 299.3 916.7 332.7 1000 326.2C1083.3 319.7 1166.7 273.3 1250 272C1333.3 270.7 1416.7 314.3 1500 318.8C1583.3 323.3 1666.7 288.7 1750 266C1833.3 243.3 1916.7 232.7 1958.3 227.3L2000 222L2000 0L1958.3 0C1916.7 0 1833.3 0 1750 0C1666.7 0 1583.3 0 1500 0C1416.7 0 1333.3 0 1250 0C1166.7 0 1083.3 0 1000 0C916.7 0 833.3 0 750 0C666.7 0 583.3 0 500 0C416.7 0 333.3 0 250 0C166.7 0 83.3 0 41.7 0L0 0Z" fill="#be3061"></path><path d="M0 253L41.7 255.3C83.3 257.7 166.7 262.3 250 268.3C333.3 274.3 416.7 281.7 500 276.3C583.3 271 666.7 253 750 259.2C833.3 265.3 916.7 295.7 1000 291.3C1083.3 287 1166.7 248 1250 231.7C1333.3 215.3 1416.7 221.7 1500 238.5C1583.3 255.3 1666.7 282.7 1750 298.3C1833.3 314 1916.7 318 1958.3 320L2000 322L2000 0L1958.3 0C1916.7 0 1833.3 0 1750 0C1666.7 0 1583.3 0 1500 0C1416.7 0 1333.3 0 1250 0C1166.7 0 1083.3 0 1000 0C916.7 0 833.3 0 750 0C666.7 0 583.3 0 500 0C416.7 0 333.3 0 250 0C166.7 0 83.3 0 41.7 0L0 0Z" fill="#cb3d62"></path><path d="M0 204L41.7 210.5C83.3 217 166.7 230 250 236.7C333.3 243.3 416.7 243.7 500 237.5C583.3 231.3 666.7 218.7 750 210.8C833.3 203 916.7 200 1000 206.3C1083.3 212.7 1166.7 228.3 1250 223.8C1333.3 219.3 1416.7 194.7 1500 198.5C1583.3 202.3 1666.7 234.7 1750 249.8C1833.3 265 1916.7 263 1958.3 262L2000 261L2000 0L1958.3 0C1916.7 0 1833.3 0 1750 0C1666.7 0 1583.3 0 1500 0C1416.7 0 1333.3 0 1250 0C1166.7 0 1083.3 0 1000 0C916.7 0 833.3 0 750 0C666.7 0 583.3 0 500 0C416.7 0 333.3 0 250 0C166.7 0 83.3 0 41.7 0L0 0Z" fill="#d84a64"></path><path d="M0 169L41.7 166.5C83.3 164 166.7 159 250 157.7C333.3 156.3 416.7 158.7 500 160.7C583.3 162.7 666.7 164.3 750 155.7C833.3 147 916.7 128 1000 128.5C1083.3 129 1166.7 149 1250 153C1333.3 157 1416.7 145 1500 147C1583.3 149 1666.7 165 1750 166C1833.3 167 1916.7 153 1958.3 146L2000 139L2000 0L1958.3 0C1916.7 0 1833.3 0 1750 0C1666.7 0 1583.3 0 1500 0C1416.7 0 1333.3 0 1250 0C1166.7 0 1083.3 0 1000 0C916.7 0 833.3 0 750 0C666.7 0 583.3 0 500 0C416.7 0 333.3 0 250 0C166.7 0 83.3 0 41.7 0L0 0Z" fill="#e45765"></path><path d="M0 120L41.7 125.5C83.3 131 166.7 142 250 139.3C333.3 136.7 416.7 120.3 500 109.3C583.3 98.3 666.7 92.7 750 94.7C833.3 96.7 916.7 106.3 1000 106.2C1083.3 106 1166.7 96 1250 96C1333.3 96 1416.7 106 1500 105.3C1583.3 104.7 1666.7 93.3 1750 93.3C1833.3 93.3 1916.7 104.7 1958.3 110.3L2000 116L2000 0L1958.3 0C1916.7 0 1833.3 0 1750 0C1666.7 0 1583.3 0 1500 0C1416.7 0 1333.3 0 1250 0C1166.7 0 1083.3 0 1000 0C916.7 0 833.3 0 750 0C666.7 0 583.3 0 500 0C416.7 0 333.3 0 250 0C166.7 0 83.3 0 41.7 0L0 0Z" fill="#ef6467"></path><path d="M0 54L41.7 52.5C83.3 51 166.7 48 250 47.3C333.3 46.7 416.7 48.3 500 47C583.3 45.7 666.7 41.3 750 40.5C833.3 39.7 916.7 42.3 1000 47C1083.3 51.7 1166.7 58.3 1250 60.7C1333.3 63 1416.7 61 1500 61.3C1583.3 61.7 1666.7 64.3 1750 62.8C1833.3 61.3 1916.7 55.7 1958.3 52.8L2000 50L2000 0L1958.3 0C1916.7 0 1833.3 0 1750 0C1666.7 0 1583.3 0 1500 0C1416.7 0 1333.3 0 1250 0C1166.7 0 1083.3 0 1000 0C916.7 0 833.3 0 750 0C666.7 0 583.3 0 500 0C416.7 0 333.3 0 250 0C166.7 0 83.3 0 41.7 0L0 0Z" fill="#fa7268"></path></svg>