<svg preserveAspectRatio="none"
          className="absolute inset-0 w-full h-fit pointer-events-none" id="visual" viewBox="0 0 2000 76" width="2000" height="76" xmlns="http://www.w3.org/2000/svg" xmlnsXlink="http://www.w3.org/1999/xlink" version="1.1"><path d="M0 23L87 23L87 18L174 18L174 19L261 19L261 27L348 27L348 28L435 28L435 13L522 13L522 20L609 20L609 17L696 17L696 17L783 17L783 28L870 28L870 21L957 21L957 19L1043 19L1043 28L1130 28L1130 18L1217 18L1217 26L1304 26L1304 24L1391 24L1391 24L1478 24L1478 28L1565 28L1565 30L1652 30L1652 13L1739 13L1739 27L1826 27L1826 32L1913 32L1913 28L2000 28L2000 15L2000 0L2000 0L1913 0L1913 0L1826 0L1826 0L1739 0L1739 0L1652 0L1652 0L1565 0L1565 0L1478 0L1478 0L1391 0L1391 0L1304 0L1304 0L1217 0L1217 0L1130 0L1130 0L1043 0L1043 0L957 0L957 0L870 0L870 0L783 0L783 0L696 0L696 0L609 0L609 0L522 0L522 0L435 0L435 0L348 0L348 0L261 0L261 0L174 0L174 0L87 0L87 0L0 0Z" fill="#fa7268"></path><path d="M0 37L87 37L87 34L174 34L174 33L261 33L261 39L348 39L348 45L435 45L435 28L522 28L522 37L609 37L609 25L696 25L696 33L783 33L783 39L870 39L870 35L957 35L957 31L1043 31L1043 38L1130 38L1130 29L1217 29L1217 34L1304 34L1304 34L1391 34L1391 37L1478 37L1478 43L1565 43L1565 40L1652 40L1652 31L1739 31L1739 41L1826 41L1826 41L1913 41L1913 39L2000 39L2000 34L2000 13L2000 26L1913 26L1913 30L1826 30L1826 25L1739 25L1739 11L1652 11L1652 28L1565 28L1565 26L1478 26L1478 22L1391 22L1391 22L1304 22L1304 24L1217 24L1217 16L1130 16L1130 26L1043 26L1043 17L957 17L957 19L870 19L870 26L783 26L783 15L696 15L696 15L609 15L609 18L522 18L522 11L435 11L435 26L348 26L348 25L261 25L261 17L174 17L174 16L87 16L87 21L0 21Z" fill="#ea5e66"></path><path d="M0 47L87 47L87 43L174 43L174 45L261 45L261 50L348 50L348 56L435 56L435 35L522 35L522 47L609 47L609 37L696 37L696 39L783 39L783 51L870 51L870 41L957 41L957 41L1043 41L1043 48L1130 48L1130 39L1217 39L1217 42L1304 42L1304 47L1391 47L1391 45L1478 45L1478 48L1565 48L1565 52L1652 52L1652 42L1739 42L1739 53L1826 53L1826 47L1913 47L1913 47L2000 47L2000 39L2000 32L2000 37L1913 37L1913 39L1826 39L1826 39L1739 39L1739 29L1652 29L1652 38L1565 38L1565 41L1478 41L1478 35L1391 35L1391 32L1304 32L1304 32L1217 32L1217 27L1130 27L1130 36L1043 36L1043 29L957 29L957 33L870 33L870 37L783 37L783 31L696 31L696 23L609 23L609 35L522 35L522 26L435 26L435 43L348 43L348 37L261 37L261 31L174 31L174 32L87 32L87 35L0 35Z" fill="#d84a64"></path><path d="M0 63L87 63L87 70L174 70L174 66L261 66L261 69L348 69L348 71L435 71L435 62L522 62L522 66L609 66L609 65L696 65L696 64L783 64L783 66L870 66L870 68L957 68L957 69L1043 69L1043 71L1130 71L1130 68L1217 68L1217 68L1304 68L1304 67L1391 67L1391 67L1478 67L1478 70L1565 70L1565 66L1652 66L1652 68L1739 68L1739 66L1826 66L1826 63L1913 63L1913 63L2000 63L2000 63L2000 37L2000 45L1913 45L1913 45L1826 45L1826 51L1739 51L1739 40L1652 40L1652 50L1565 50L1565 46L1478 46L1478 43L1391 43L1391 45L1304 45L1304 40L1217 40L1217 37L1130 37L1130 46L1043 46L1043 39L957 39L957 39L870 39L870 49L783 49L783 37L696 37L696 35L609 35L609 45L522 45L522 33L435 33L435 54L348 54L348 48L261 48L261 43L174 43L174 41L87 41L87 45L0 45Z" fill="#c53762"></path><path d="M0 77L87 77L87 77L174 77L174 77L261 77L261 77L348 77L348 77L435 77L435 77L522 77L522 77L609 77L609 77L696 77L696 77L783 77L783 77L870 77L870 77L957 77L957 77L1043 77L1043 77L1130 77L1130 77L1217 77L1217 77L1304 77L1304 77L1391 77L1391 77L1478 77L1478 77L1565 77L1565 77L1652 77L1652 77L1739 77L1739 77L1826 77L1826 77L1913 77L1913 77L2000 77L2000 77L2000 61L2000 61L1913 61L1913 61L1826 61L1826 64L1739 64L1739 66L1652 66L1652 64L1565 64L1565 68L1478 68L1478 65L1391 65L1391 65L1304 65L1304 66L1217 66L1217 66L1130 66L1130 69L1043 69L1043 67L957 67L957 66L870 66L870 64L783 64L783 62L696 62L696 63L609 63L609 64L522 64L522 60L435 60L435 69L348 69L348 67L261 67L261 64L174 64L174 68L87 68L87 61L0 61Z" fill="#b0235f"></path></svg>