<svg id="visual" viewBox="0 0 675 900" width="675" height="900" xmlns="http://www.w3.org/2000/svg" xmlns:xlink="http://www.w3.org/1999/xlink" version="1.1"><path d="M0 289L45 289L45 316L90 316L90 244L135 244L135 262L180 262L180 208L225 208L225 280L270 280L270 262L315 262L315 190L360 190L360 235L405 235L405 208L450 208L450 325L495 325L495 190L540 190L540 208L585 208L585 253L630 253L630 325L675 325L675 235L675 0L675 0L630 0L630 0L585 0L585 0L540 0L540 0L495 0L495 0L450 0L450 0L405 0L405 0L360 0L360 0L315 0L315 0L270 0L270 0L225 0L225 0L180 0L180 0L135 0L135 0L90 0L90 0L45 0L45 0L0 0Z" fill="#fa7268"></path><path d="M0 433L45 433L45 415L90 415L90 379L135 379L135 388L180 388L180 316L225 316L225 415L270 415L270 361L315 361L315 298L360 298L360 370L405 370L405 325L450 325L450 433L495 433L495 334L540 334L540 352L585 352L585 415L630 415L630 442L675 442L675 379L675 233L675 323L630 323L630 251L585 251L585 206L540 206L540 188L495 188L495 323L450 323L450 206L405 206L405 233L360 233L360 188L315 188L315 260L270 260L270 278L225 278L225 206L180 206L180 260L135 260L135 242L90 242L90 314L45 314L45 287L0 287Z" fill="#ea5e66"></path><path d="M0 640L45 640L45 631L90 631L90 505L135 505L135 568L180 568L180 451L225 451L225 523L270 523L270 514L315 514L315 478L360 478L360 568L405 568L405 442L450 442L450 559L495 559L495 505L540 505L540 505L585 505L585 568L630 568L630 550L675 550L675 550L675 377L675 440L630 440L630 413L585 413L585 350L540 350L540 332L495 332L495 431L450 431L450 323L405 323L405 368L360 368L360 296L315 296L315 359L270 359L270 413L225 413L225 314L180 314L180 386L135 386L135 377L90 377L90 413L45 413L45 431L0 431Z" fill="#d84a64"></path><path d="M0 811L45 811L45 820L90 820L90 784L135 784L135 784L180 784L180 811L225 811L225 775L270 775L270 784L315 784L315 775L360 775L360 775L405 775L405 829L450 829L450 829L495 829L495 802L540 802L540 793L585 793L585 820L630 820L630 784L675 784L675 775L675 548L675 548L630 548L630 566L585 566L585 503L540 503L540 503L495 503L495 557L450 557L450 440L405 440L405 566L360 566L360 476L315 476L315 512L270 512L270 521L225 521L225 449L180 449L180 566L135 566L135 503L90 503L90 629L45 629L45 638L0 638Z" fill="#c53762"></path><path d="M0 901L45 901L45 901L90 901L90 901L135 901L135 901L180 901L180 901L225 901L225 901L270 901L270 901L315 901L315 901L360 901L360 901L405 901L405 901L450 901L450 901L495 901L495 901L540 901L540 901L585 901L585 901L630 901L630 901L675 901L675 901L675 773L675 782L630 782L630 818L585 818L585 791L540 791L540 800L495 800L495 827L450 827L450 827L405 827L405 773L360 773L360 773L315 773L315 782L270 782L270 773L225 773L225 809L180 809L180 782L135 782L135 782L90 782L90 818L45 818L45 809L0 809Z" fill="#b0235f"></path></svg>