<svg preserveAspectRatio="none"
          className="absolute inset-0 w-full h-fit pointer-events-none" id="visual" viewBox="0 0 2000 190" width="2000" height="190" xmlns="http://www.w3.org/2000/svg" xmlnsXlink="http://www.w3.org/1999/xlink" version="1.1"><path d="M0 56L87 56L87 45L174 45L174 47L261 47L261 66L348 66L348 68L435 68L435 31L522 31L522 49L609 49L609 41L696 41L696 41L783 41L783 68L870 68L870 50L957 50L957 47L1043 47L1043 69L1130 69L1130 45L1217 45L1217 64L1304 64L1304 58L1391 58L1391 58L1478 58L1478 69L1565 69L1565 73L1652 73L1652 31L1739 31L1739 66L1826 66L1826 79L1913 79L1913 68L2000 68L2000 37L2000 0L2000 0L1913 0L1913 0L1826 0L1826 0L1739 0L1739 0L1652 0L1652 0L1565 0L1565 0L1478 0L1478 0L1391 0L1391 0L1304 0L1304 0L1217 0L1217 0L1130 0L1130 0L1043 0L1043 0L957 0L957 0L870 0L870 0L783 0L783 0L696 0L696 0L609 0L609 0L522 0L522 0L435 0L435 0L348 0L348 0L261 0L261 0L174 0L174 0L87 0L87 0L0 0Z" fill="#fa7268"></path><path d="M0 92L87 92L87 83L174 83L174 81L261 81L261 96L348 96L348 111L435 111L435 68L522 68L522 92L609 92L609 62L696 62L696 81L783 81L783 96L870 96L870 87L957 87L957 77L1043 77L1043 94L1130 94L1130 71L1217 71L1217 85L1304 85L1304 85L1391 85L1391 90L1478 90L1478 106L1565 106L1565 98L1652 98L1652 75L1739 75L1739 102L1826 102L1826 100L1913 100L1913 96L2000 96L2000 83L2000 35L2000 66L1913 66L1913 77L1826 77L1826 64L1739 64L1739 29L1652 29L1652 71L1565 71L1565 67L1478 67L1478 56L1391 56L1391 56L1304 56L1304 62L1217 62L1217 43L1130 43L1130 67L1043 67L1043 45L957 45L957 48L870 48L870 66L783 66L783 39L696 39L696 39L609 39L609 47L522 47L522 29L435 29L435 66L348 66L348 64L261 64L261 45L174 45L174 43L87 43L87 54L0 54Z" fill="#ea5e66"></path><path d="M0 115L87 115L87 106L174 106L174 111L261 111L261 123L348 123L348 138L435 138L435 87L522 87L522 115L609 115L609 90L696 90L696 96L783 96L783 126L870 126L870 102L957 102L957 102L1043 102L1043 119L1130 119L1130 96L1217 96L1217 104L1304 104L1304 115L1391 115L1391 111L1478 111L1478 119L1565 119L1565 128L1652 128L1652 104L1739 104L1739 130L1826 130L1826 115L1913 115L1913 115L2000 115L2000 96L2000 81L2000 94L1913 94L1913 98L1826 98L1826 100L1739 100L1739 73L1652 73L1652 96L1565 96L1565 104L1478 104L1478 88L1391 88L1391 83L1304 83L1304 83L1217 83L1217 69L1130 69L1130 92L1043 92L1043 75L957 75L957 85L870 85L870 94L783 94L783 79L696 79L696 60L609 60L609 90L522 90L522 66L435 66L435 109L348 109L348 94L261 94L261 79L174 79L174 81L87 81L87 90L0 90Z" fill="#d84a64"></path><path d="M0 157L87 157L87 174L174 174L174 163L261 163L261 170L348 170L348 176L435 176L435 153L522 153L522 164L609 164L609 161L696 161L696 159L783 159L783 164L870 164L870 168L957 168L957 172L1043 172L1043 176L1130 176L1130 168L1217 168L1217 168L1304 168L1304 166L1391 166L1391 166L1478 166L1478 174L1565 174L1565 164L1652 164L1652 168L1739 168L1739 164L1826 164L1826 157L1913 157L1913 155L2000 155L2000 157L2000 94L2000 113L1913 113L1913 113L1826 113L1826 128L1739 128L1739 102L1652 102L1652 126L1565 126L1565 117L1478 117L1478 109L1391 109L1391 113L1304 113L1304 102L1217 102L1217 94L1130 94L1130 117L1043 117L1043 100L957 100L957 100L870 100L870 124L783 124L783 94L696 94L696 88L609 88L609 113L522 113L522 85L435 85L435 136L348 136L348 121L261 121L261 109L174 109L174 104L87 104L87 113L0 113Z" fill="#c53762"></path><path d="M0 191L87 191L87 191L174 191L174 191L261 191L261 191L348 191L348 191L435 191L435 191L522 191L522 191L609 191L609 191L696 191L696 191L783 191L783 191L870 191L870 191L957 191L957 191L1043 191L1043 191L1130 191L1130 191L1217 191L1217 191L1304 191L1304 191L1391 191L1391 191L1478 191L1478 191L1565 191L1565 191L1652 191L1652 191L1739 191L1739 191L1826 191L1826 191L1913 191L1913 191L2000 191L2000 191L2000 155L2000 153L1913 153L1913 155L1826 155L1826 162L1739 162L1739 166L1652 166L1652 162L1565 162L1565 172L1478 172L1478 164L1391 164L1391 164L1304 164L1304 166L1217 166L1217 166L1130 166L1130 174L1043 174L1043 170L957 170L957 166L870 166L870 162L783 162L783 157L696 157L696 159L609 159L609 162L522 162L522 151L435 151L435 174L348 174L348 168L261 168L261 161L174 161L174 172L87 172L87 155L0 155Z" fill="#b0235f"></path></svg>