<?xml version="1.0" encoding="utf-8"?>
<svg xmlns="http://www.w3.org/2000/svg" viewBox="-8293.366 -6888.7892 19210 6540" width="19210px" height="6540px">
  <path d="M 13597.2 -8059.5 L 13597.2 -1519.5 L -5612.8 -1519.5 L -5612.8 -8059.5 Z M -4457.833 -2612.853 C -4352.321 -2511.313 -4202.472 -2457.3 -4046.828 -2490.393 C -3913.799 -2518.455 -3807.815 -2597.417 -3742.675 -2702.509 C -3677.536 -2807.599 -3654.18 -2937.307 -3688.637 -3068.236 C -3726.997 -3219.103 -3855.282 -3349.346 -4008.202 -3393.701 C -4069.572 -3411.602 -4180.278 -3414.571 -4245.622 -3398.641 C -4332.36 -3378.954 -4411.575 -3329.621 -4473.747 -3262.113 C -4535.929 -3194.594 -4580.119 -3109.918 -4595.874 -3018.643 C -4623.018 -2861.996 -4563.344 -2714.392 -4457.833 -2612.853 Z M -2172.8 -2789.5 L -1862.8 -2789.5 L -1862.8 -3099.5 L -2172.8 -3099.5 L -2172.8 -2789.5 L -2792.8 -2789.5 L -2792.8 -2479.5 L -2172.8 -2479.5 Z M -2172.8 -3109.5 L -2172.8 -3409.5 L -2792.8 -3409.5 L -2792.8 -3109.5 Z M -135.718 -2493.105 C -118.364 -2499.735 -95.275 -2518.022 -83.675 -2532.623 C -62.237 -2558.044 -62.771 -2562.5 -62.771 -2941.5 C -62.771 -3279.4 -64.446 -3328.053 -78.081 -3351.965 C -96.064 -3381.938 -103.37 -3394.803 -157.557 -3402.044 C -213.354 -3409.5 -316.27 -3409.5 -522.77 -3409.5 C -727.27 -3409.5 -830.207 -3409.5 -886.773 -3402.414 C -941.85 -3395.514 -950.677 -3383.13 -969.61 -3354.727 C -987.167 -3330.06 -987.772 -3303.388 -990.77 -2974.454 C -992.77 -2779.509 -990.807 -2606.149 -987.843 -2588.354 C -981.267 -2552.404 -941.876 -2500.343 -911.965 -2489.163 C -900.868 -2484.354 -729.712 -2480.499 -529.77 -2480.5 C -242.869 -2479.498 -160.834 -2482.301 -135.718 -2493.105 Z M 1279.691 -2480.77 C 1280.463 -2481.209 1281.491 -2481.818 1282.814 -2482.621 C 1286.056 -2484.59 1290.774 -2487.553 1296.852 -2491.433 C 1309.022 -2499.203 1326.495 -2510.561 1347.985 -2524.679 C 1390.973 -2552.921 1449.947 -2592.154 1514.434 -2635.645 L 1747.23 -2790.182 L 1747.23 -3101.5 C 1747.23 -3249.492 1746.98 -3327.602 1744.738 -3367.595 C 1743.626 -3387.416 1742.156 -3396.974 1740.117 -3401.283 C 1739.863 -3401.819 1739.806 -3402.083 1739.824 -3402.204 C 1739.525 -3402.194 1739.176 -3402.012 1737.791 -3401.206 C 1727.807 -3395.213 1622.998 -3326.336 1505.019 -3247.35 L 1282.526 -3097.297 L 1272.525 -3405.343 L 1048.008 -3255.343 L 817.229 -3101.821 L 817.229 -2792.16 L 1048.024 -2636.647 C 1170.068 -2554.002 1271.44 -2485.597 1279.691 -2480.77 Z M 3552.23 -2754.5 C 3552.234 -3015.353 3551.372 -3031.535 3529.504 -3094.869 C 3489.007 -3212.513 3407.638 -3302.725 3305.785 -3356.071 C 3203.93 -3409.418 3083.076 -3425.11 2962.559 -3391.68 C 2809.632 -3349.297 2693.363 -3235.971 2647.007 -3085.023 C 2629.119 -3028.637 2627.226 -2993.361 2627.23 -2748.5 L 2627.23 -2479.521 L 3090.203 -2481.5 L 3552.23 -2484.468 Z M 4737.23 -2789.5 L 5045.159 -2789.5 L 5357.23 -3101.571 L 5357.23 -3409.5 L 5057.23 -3409.5 L 5057.23 -3099.5 L 4739.301 -3099.5 L 4427.23 -2787.429 L 4427.23 -2479.5 L 4737.23 -2479.5 Z M 4737.23 -3109.5 L 4737.23 -3409.5 L 4427.23 -3409.5 L 4427.23 -3109.5 Z M 5057.23 -2789.5 L 5057.23 -2479.5 L 5357.23 -2479.5 L 5357.23 -2789.5 Z M 6698.23 -2676.512 C 6698.23 -2774.517 6698.481 -2825.022 6700.507 -2844.517 C 6701.034 -2849.591 6701.892 -2853.599 6703.08 -2855.518 C 6703.563 -2856.298 6704.816 -2857.549 6705.801 -2858.008 C 6707.021 -2858.577 6709.545 -2858.514 6710.662 -2857.992 C 6712.1 -2857.321 6713.641 -2855.448 6714.369 -2854.113 C 6716.695 -2849.849 6719.548 -2839.835 6723.058 -2826.8 C 6753.658 -2712.631 6830.52 -2608.131 6930.784 -2548.799 C 6987.267 -2515.032 7092.04 -2481.38 7145.323 -2480.499 L 7167.23 -2479.689 L 7167.23 -3409.5 L 7140.23 -3409.5 C 7096.89 -3409.589 7013.976 -3386.837 6958.401 -3359.996 C 6856.263 -3310.685 6754.599 -3183.296 6721.051 -3064.174 C 6718.274 -3053.836 6715.685 -3045.728 6713.166 -3043.303 C 6712.548 -3042.709 6711.042 -3041.824 6709.989 -3041.633 C 6708.756 -3041.41 6706.456 -3042.009 6705.517 -3042.723 C 6704.328 -3043.626 6703.215 -3045.668 6702.769 -3047.116 C 6702.043 -3049.467 6701.448 -3053.486 6700.998 -3058.83 C 6699.232 -3079.763 6698.73 -3127.96 6698.23 -3216.472 L 6697.255 -3409.5 L 6662.23 -3409.5 C 6640.7 -3409.545 6594.532 -3400.687 6560.894 -3388.785 C 6442.746 -3349.771 6350.69 -3269.58 6295.105 -3169.08 C 6239.525 -3068.588 6221.121 -2949.251 6252.07 -2830.756 C 6277.731 -2732.509 6334.211 -2648.158 6409.896 -2586.245 C 6485.58 -2524.333 6579.296 -2485.816 6680.474 -2480.494 L 6697.256 -2479.731 Z M 8538.694 -2498.036 C 8549.218 -2508.559 8557.23 -2522.726 8557.23 -2529.5 C 8557.23 -2548.147 8613.482 -2758.044 8628.563 -2797.295 C 8638.907 -2821.682 8654.621 -2829.219 8748.988 -2853.343 C 8851.973 -2879.839 8905.876 -2893.998 8934.436 -2905.867 C 8961.604 -2917.158 8963.886 -2924.058 8965.248 -2940.927 C 8967.313 -2956.999 8963.359 -2973.829 8957.324 -2977.431 C 8951.211 -2982.941 8880.872 -3004.689 8800.989 -3025.656 C 8720.867 -3045.692 8649.715 -3068.033 8640.869 -3075.805 C 8633.008 -3083.49 8609.439 -3155.074 8588.397 -3236.217 C 8566.428 -3317.11 8543.846 -3389.249 8538.23 -3396.5 C 8531.782 -3404.756 8520.264 -3408.533 8507.668 -3409.004 C 8495.104 -3409.473 8483.926 -3406.572 8478.177 -3398.43 L 8478.002 -3398.182 L 8477.766 -3397.964 C 8472.389 -3393.004 8452.043 -3325.143 8432.069 -3248.243 C 8412.035 -3171.11 8388.771 -3098.48 8381.549 -3085.981 C 8369.338 -3069.046 8331.707 -3054.729 8216.469 -3025.656 C 8135.548 -3004.677 8064.557 -2984.202 8058.484 -2978.704 C 8051.767 -2973.789 8048.428 -2963.977 8047.721 -2952.201 C 8047.01 -2940.344 8049.276 -2928.361 8055.422 -2919.225 C 8058.073 -2913.346 8125.695 -2890.284 8204.515 -2869.332 C 8283.533 -2848.327 8356.906 -2828.196 8366.261 -2824.069 C 8385.733 -2815.51 8399.032 -2776.881 8437.079 -2625.72 C 8453.064 -2559.778 8462.394 -2524.905 8473.218 -2505.567 C 8483.521 -2487.161 8493.793 -2483.873 8515.661 -2480.493 C 8518.829 -2480.793 8528.041 -2487.382 8538.694 -2498.036 Z M 10369.677 -2494.817 C 10400.831 -2513.019 10427.2 -2554.842 10427.2 -2584.5 C 10427.2 -2594.894 10411.382 -2658.169 10391.415 -2724.05 C 10377.643 -2769.626 10368.163 -2805.014 10364.589 -2831.343 C 10360.968 -2858.019 10363.722 -2877.538 10374.426 -2888.172 C 10385.137 -2898.814 10404.59 -2901.326 10430.973 -2897.367 C 10457.008 -2893.46 10491.892 -2883.537 10536.717 -2869.264 C 10662.89 -2828.384 10701.884 -2829.255 10744.664 -2872.036 C 10772.053 -2899.424 10777.2 -2910.548 10777.2 -2946.5 C 10777.2 -2995.274 10760.903 -3025.038 10719.964 -3045.028 C 10680.414 -3065.772 10666.242 -3063.629 10532.663 -3022.719 C 10443.414 -2995.657 10405.336 -2988.937 10392.516 -2996.281 C 10373.069 -3008.647 10361.7 -3020.505 10361.7 -3044.375 C 10361.7 -3067.164 10371.401 -3102.402 10390.423 -3163.976 C 10431.327 -3296.515 10433.49 -3312.636 10412.75 -3352.221 C 10392.76 -3393.16 10362.974 -3409.5 10314.2 -3409.5 C 10278.248 -3409.5 10267.124 -3404.353 10239.736 -3376.964 C 10196.986 -3334.214 10197.086 -3296.245 10240.973 -3155.989 C 10259.018 -3097.824 10272.028 -3041.357 10268.989 -3030.063 C 10266.039 -3019.3 10261.291 -3010.216 10253.923 -3004.353 C 10246.616 -2998.539 10235.892 -2995.323 10222.398 -2995.126 C 10196.153 -2994.741 10154.889 -3004.678 10089.751 -3024.715 C 9952.514 -3065.604 9923.04 -3066.276 9881.848 -3022.049 C 9865.287 -3004.672 9855.29 -2983.963 9851.533 -2962.031 C 9847.782 -2940.129 9850.43 -2918.468 9860.676 -2898.788 C 9878.573 -2864.054 9899.718 -2846.285 9935.24 -2841.709 C 9971.325 -2837.06 10020.975 -2846.836 10094.686 -2870.265 C 10147.847 -2886.81 10184.053 -2895.485 10209.324 -2896.123 C 10235.279 -2896.779 10251.43 -2888.107 10262.36 -2872.273 C 10272.678 -2853.635 10270.059 -2831.387 10240.977 -2738.024 C 10216.532 -2658.229 10205.492 -2607.672 10208.309 -2572.019 C 10211.074 -2537.043 10226.453 -2517.697 10257.802 -2498.77 C 10295.553 -2475.14 10333.988 -2474.174 10369.677 -2494.817 Z M 11957.2 -2778.598 L 11811.101 -2781.501 C 11728.197 -2783.501 11660.504 -2782.732 11659.736 -2781.964 C 11658.95 -2781.179 11657.199 -2712.43 11657.2 -2627.5 L 11657.2 -2479.5 L 11957.2 -2479.5 Z M 12587.2 -2629.5 C 12587.2 -2687.952 12586.454 -2726.508 12584.59 -2750.488 C 12583.665 -2762.385 12582.52 -2770.289 12581.066 -2775.355 C 12580.408 -2777.646 12579.932 -2778.757 12579.35 -2779.57 C 12571.885 -2780.539 12503.613 -2781.507 12427.135 -2782.5 L 12287.2 -2784.499 L 12287.2 -2479.5 L 12587.2 -2479.5 Z M 12282.008 -2799.5 L 12279.201 -2946.404 L 12276.294 -3099.5 L 11967.2 -3099.5 L 11967.2 -2799.5 L 12282.008 -2799.5 L 12282.293 -2784.57 L 12287.129 -2784.501 L 12287.2 -2784.499 Z M 11957.2 -3109.5 L 11957.2 -3409.5 L 11657.2 -3409.5 L 11657.2 -3109.5 Z M 12587.2 -3109.5 L 12587.2 -3409.5 L 12287.2 -3409.5 L 12287.2 -3109.5 Z M 8623.694 -4410.964 C 8565.624 -4469.038 8517.23 -4521.806 8517.23 -4527.5 C 8517.23 -4529.152 8518.907 -4531.49 8519.789 -4532.063 C 8520.33 -4532.416 8521.222 -4532.801 8521.821 -4532.995 C 8522.811 -4533.315 8524.302 -4533.634 8525.888 -4533.887 C 8528.937 -4534.373 8533.438 -4534.84 8539.037 -4535.267 C 8550.173 -4536.116 8566.284 -4536.871 8586.072 -4537.497 C 8625.617 -4538.749 8680.196 -4539.5 8740.23 -4539.5 L 8955.159 -4539.5 L 9170.143 -4754.484 L 9060.71 -4862.949 L 8952.214 -4972.413 L 8727.23 -4747.429 L 8613.694 -4860.964 L 8507.716 -4967.915 L 8287.23 -4747.429 L 8064.214 -4970.445 L 7954.766 -4861.964 L 7846.285 -4752.516 L 8059.301 -4539.5 L 8519.301 -4539.5 L 8402.766 -4422.964 C 8343.851 -4364.054 8297.23 -4312.822 8297.23 -4309.5 C 8297.23 -4306.178 8343.851 -4254.946 8402.766 -4196.036 L 8507.23 -4091.571 L 8725.159 -4309.5 Z M 8507.716 -4981.085 L 8611.678 -5086.019 C 8670.593 -5144.929 8717.23 -5196.178 8717.23 -5199.5 C 8717.23 -5203.793 8668.377 -5255.783 8616.678 -5307.981 C 8564.978 -5360.18 8513.505 -5409.5 8509.23 -5409.5 C 8502.983 -5409.5 8329.159 -5238.387 8306.236 -5208.507 C 8303.553 -5204.783 8302.673 -5202.721 8303.198 -5198.938 C 8303.791 -5194.668 8306.311 -5189.642 8312.605 -5181.25 C 8325.538 -5164.006 8352.29 -5136.511 8401.766 -5087.036 Z M -3832.8 -5219.5 L -4442.8 -5219.5 L -4442.8 -4919.5 L -4132.8 -4919.5 L -4132.8 -4589.5 L -4442.8 -4589.5 L -4442.8 -4289.5 L -3832.8 -4289.5 Z M -1862.8 -4749.5 L -1889.8 -4749.5 C -1988.87 -4749.741 -2104.628 -4804.463 -2191.326 -4890.955 C -2279.83 -4978.679 -2331.568 -5090.423 -2332.8 -5191.45 L -2332.8 -5219.5 L -2792.8 -5219.5 L -2792.8 -4762.695 L -2728.943 -4751.426 C -2625.217 -4733.677 -2534.797 -4686.818 -2466.389 -4618.411 C -2397.985 -4550.006 -2350.623 -4459.095 -2331.877 -4354.376 L -2320.595 -4289.5 L -1862.8 -4289.5 Z M -356.588 -4319.158 C -241.469 -4362.588 -135.871 -4468.165 -91.438 -4584.295 C -60.608 -4662.489 -54.671 -4799.917 -77.576 -4879.118 C -101.301 -4963.489 -143.59 -5032.345 -209.148 -5092.814 C -274.657 -5152.46 -328.6 -5181.887 -414.049 -5204.666 C -590.498 -5250.746 -757.556 -5184.576 -866.187 -5063.658 C -974.822 -4942.737 -1023.527 -4768.689 -960.073 -4596.214 C -908.708 -4454.18 -806.257 -4357.688 -656.171 -4307.237 C -582.042 -4282.371 -437.764 -4287.327 -356.588 -4319.158 Z M 1424.25 -4351.049 C 1418.465 -4414.153 1388.231 -4521.867 1370.867 -4542.673 C 1370.701 -4542.541 1370.503 -4542.377 1370.259 -4542.173 C 1367.916 -4540.213 1365.102 -4536.854 1361.628 -4531.93 C 1354.579 -4521.939 1346.141 -4507.142 1337.702 -4490.264 C 1320.797 -4456.454 1304.528 -4415.723 1301.18 -4391.793 C 1299.14 -4379.097 1296.757 -4369.235 1294.257 -4362.887 C 1292.952 -4359.573 1291.313 -4356.601 1289.727 -4354.789 C 1287.854 -4352.649 1284.139 -4350.908 1281.488 -4351.305 C 1277.198 -4351.949 1272.74 -4357.888 1270.141 -4365.24 C 1267.67 -4372.231 1265.322 -4382.564 1263.288 -4395.74 C 1247.776 -4495.607 1139.081 -4636.765 1033.894 -4692.079 C 1006.138 -4706.965 959.643 -4725.748 929.941 -4733.669 C 914.778 -4737.712 902.58 -4741.865 895.307 -4745.371 C 891.503 -4747.205 888.13 -4749.451 886.677 -4751.461 C 885.615 -4752.931 884.969 -4756.374 885.843 -4758.256 C 886.587 -4759.858 888.825 -4761.564 890.473 -4762.182 C 898.631 -4765.241 928.77 -4774.282 957.747 -4783.275 C 985.484 -4791.679 1015.804 -4804.757 1039.365 -4817.405 C 1051.107 -4823.709 1060.891 -4829.749 1067.85 -4835.067 C 1074.633 -4840.25 1077.23 -4842.916 1077.23 -4844.5 C 1077.23 -4844.287 1077.044 -4844.108 1073.525 -4846.159 C 1069.761 -4848.353 1064.348 -4850.806 1057.345 -4853.547 C 1043.244 -4859.067 1023.798 -4865.271 1002.137 -4871.309 C 958.776 -4883.395 907.503 -4894.561 874.806 -4897.518 L 817.229 -4902.087 L 817.229 -4289.5 L 1429.762 -4289.5 Z M 3179.232 -4394.349 C 3178.231 -4424.426 3178.23 -4452.109 3179.11 -4472.219 C 3179.551 -4482.311 3180.229 -4490.705 3181.115 -4496.505 C 3181.57 -4499.477 3182.153 -4502.133 3182.788 -4503.914 C 3183.147 -4504.919 3183.764 -4506.18 3184.344 -4506.945 C 3185.145 -4508.002 3187.556 -4509.5 3189.23 -4509.5 C 3194.9 -4509.5 3235.66 -4473.135 3277.754 -4431.047 L 3352.233 -4357.523 L 3418.707 -4423.048 L 3485.159 -4489.5 L 3315.159 -4659.5 L 3558.073 -4659.5 L 3555.232 -4751.345 L 3552.377 -4844.626 L 3443.099 -4847.502 L 3316.464 -4850.805 L 3486.082 -5020.423 L 3418.772 -5084.889 L 3352.277 -5150.433 L 3274.787 -5071.986 C 3229.783 -5027.983 3189.974 -4989.5 3186.23 -4989.5 C 3184.591 -4989.5 3182.29 -4991.217 3181.798 -4992.009 C 3181.522 -4992.452 3181.215 -4993.188 3181.085 -4993.6 C 3180.888 -4994.228 3180.689 -4995.176 3180.546 -4996.071 C 3180.28 -4997.744 3180.017 -5000.216 3179.777 -5003.211 C 3179.303 -5009.14 3178.86 -5017.719 3178.483 -5028.195 C 3177.732 -5049.117 3177.23 -5077.957 3177.23 -5109.5 L 3177.23 -5219.5 L 2997.23 -5219.5 L 2997.23 -4977.429 L 2827.23 -5147.429 L 2760.778 -5080.977 L 2695.253 -5014.503 L 2768.777 -4940.024 C 2810.843 -4897.954 2847.23 -4858.194 2847.23 -4854.5 C 2847.23 -4853.251 2846.214 -4851.248 2845.531 -4850.599 C 2845.07 -4850.161 2844.223 -4849.634 2843.751 -4849.417 C 2843.051 -4849.096 2841.962 -4848.775 2841.046 -4848.58 C 2839.388 -4848.227 2836.931 -4847.911 2834.056 -4847.66 C 2828.398 -4847.166 2820.197 -4846.815 2810.199 -4846.626 C 2790.254 -4846.25 2762.634 -4846.501 2732.08 -4847.502 L 2627.23 -4850.362 L 2627.23 -4659.5 L 2863.196 -4659.5 L 2774.787 -4569.986 L 2697.163 -4492.361 L 2717.904 -4469.891 C 2729.802 -4456.004 2760.759 -4424.043 2784.725 -4400.076 L 2826.151 -4360.492 L 2997.23 -4531.571 L 2997.23 -4289.5 L 3182.092 -4289.5 Z M 4737.23 -4599.5 L 5046.159 -4599.5 L 5357.23 -4910.571 L 5357.23 -5219.5 L 5057.23 -5219.5 L 5057.23 -4904.401 L 4748.269 -4910.459 L 4427.23 -4587.438 L 4427.23 -4289.5 L 4737.23 -4289.5 Z M 6538.435 -4321.647 C 6561.019 -4337.306 6587.146 -4365.285 6598.722 -4389.664 C 6628.133 -4447.247 6646.894 -4466.662 6681.192 -4474.391 C 6703.701 -4478.895 6726.666 -4474.448 6746.552 -4461.71 C 6766.29 -4449.068 6784.359 -4427.757 6798.684 -4399.772 C 6833.752 -4331.789 6894.967 -4295.653 6959.227 -4290.861 C 7023.478 -4286.07 7088.731 -4312.753 7132.152 -4374.394 C 7166.711 -4422.777 7173.898 -4479.08 7158.8 -4531.619 C 7143.688 -4584.203 7106.633 -4631.22 7049.95 -4660.05 C 7023.016 -4673.835 7003.435 -4689.648 6992.134 -4707.445 C 6980.739 -4725.389 6977.305 -4746.531 6981.311 -4769.394 C 6989.002 -4808.709 7002.251 -4822.455 7067.808 -4858.874 C 7100.181 -4876.39 7125.604 -4903.655 7142.542 -4936.303 C 7159.482 -4968.956 7167.297 -5005.75 7163.257 -5042.977 C 7157.639 -5103.871 7125.851 -5153.174 7080.535 -5184.121 C 7035.222 -5215.067 6977.932 -5226.644 6919.604 -5209.692 C 6870.557 -5196.202 6823.085 -5155.468 6795.686 -5101.232 C 6771.887 -5054.304 6736.928 -5029.505 6702.624 -5029.375 C 6668.322 -5029.245 6633.09 -5053.795 6608.788 -5100.206 C 6574.612 -5168.269 6498.825 -5219.5 6436.23 -5219.5 C 6383.276 -5219.5 6334.128 -5196.84 6297.23 -5160.679 C 6260.339 -5124.526 6237.23 -5076.418 6237.23 -5024.5 C 6237.23 -4987.831 6250.477 -4950.274 6272.626 -4917.42 C 6294.778 -4884.561 6324.85 -4857.689 6359.157 -4843.114 C 6381.58 -4833.883 6397.779 -4823.131 6407.793 -4809.163 C 6417.839 -4795.152 6422.23 -4777.089 6422.23 -4754.5 C 6422.23 -4706.911 6406.336 -4687.706 6343.589 -4654.091 C 6271.654 -4615.161 6237.498 -4545.927 6238.604 -4476.83 C 6239.711 -4407.751 6275.983 -4340.969 6349.356 -4307.025 C 6405.076 -4280.257 6485.584 -4287.083 6538.435 -4321.647 Z M 10263.752 -4321.86 L 10310.78 -4347.875 L 10313.125 -4349.173 L 10367.499 -4320.94 C 10403.99 -4302.138 10436.944 -4293.415 10484.408 -4291.496 C 10542.666 -4287.435 10558.575 -4291.201 10614.094 -4317.035 C 10688.277 -4351.424 10746.903 -4417.823 10767.385 -4489.846 C 10785.298 -4554.934 10775.53 -4650.996 10744.844 -4706.045 L 10718.535 -4752.35 L 10748.728 -4812.736 C 10790.453 -4893.567 10789.469 -4976.342 10746.738 -5060.243 C 10711.309 -5131.497 10665.643 -5172.3 10590.417 -5200.829 C 10542.154 -5219.172 10496.79 -5221.715 10458.342 -5210.573 C 10420.023 -5199.468 10390.032 -5175.487 10372.719 -5138.36 C 10348.956 -5088.453 10350.936 -4917.647 10375.672 -4868.736 C 10394.905 -4830.627 10438.657 -4799.5 10471.2 -4799.5 C 10480.887 -4799.5 10489.016 -4796.939 10492.862 -4789.728 C 10496.334 -4783.217 10497.2 -4772.192 10497.2 -4755.5 C 10497.2 -4737.372 10496.537 -4725.866 10491.2 -4718.75 C 10485.77 -4711.51 10475.3 -4708.626 10459.121 -4705.586 C 10439.535 -4701.963 10417.434 -4686.9 10398.302 -4667.032 C 10379.158 -4647.152 10364.268 -4623.672 10360.099 -4602.498 C 10357.511 -4589.673 10354.354 -4580.655 10348.039 -4575.693 C 10341.776 -4570.772 10332.01 -4569.5 10318.2 -4569.5 C 10303.336 -4569.5 10292.832 -4571.123 10284.543 -4578.841 C 10276.639 -4586.2 10270.16 -4599.409 10260.61 -4621.518 C 10249.927 -4647.466 10233.332 -4669.249 10214.038 -4685.002 C 10194.825 -4700.688 10174.218 -4709.5 10154.2 -4709.5 C 10148.796 -4709.5 10144.038 -4709.794 10140.433 -4710.814 C 10136.539 -4711.915 10132.722 -4714.631 10130.819 -4718.09 C 10127.459 -4724.199 10127.707 -4734.803 10129.222 -4750.967 C 10132.35 -4784.333 10138.399 -4791.413 10175.502 -4805.203 C 10216.685 -4818.746 10243.035 -4840.992 10258.967 -4878.816 C 10275.045 -4916.985 10279.714 -4970.069 10275.209 -5045.203 C 10270.484 -5132.196 10256.584 -5159.277 10199.41 -5197.351 C 10155.423 -5227.919 10092.869 -5224.806 10031.696 -5198.409 C 9970.389 -5171.955 9912.583 -5122.459 9879.674 -5058.209 C 9841.963 -4987.376 9842.008 -4894.53 9879.786 -4811.561 L 9906.79 -4751.552 L 9907.764 -4749.387 L 9882.702 -4699.264 C 9842.974 -4621.848 9841.485 -4538.697 9870.371 -4466.226 C 9899.26 -4393.747 9957.86 -4333.597 10040.925 -4303.193 C 10099.862 -4281.339 10207.772 -4290.172 10263.752 -4321.86 Z M 11957.2 -4434.5 C 11957.201 -4475.55 11957.953 -4513.176 11959.331 -4540.502 C 11960.022 -4554.191 11960.881 -4565.447 11961.881 -4573.231 C 11962.389 -4577.177 11962.979 -4580.506 11963.603 -4582.755 C 11963.942 -4583.976 11964.451 -4585.333 11964.947 -4586.201 C 11965.651 -4587.43 11968.245 -4589.5 11970.2 -4589.5 C 11975.929 -4589.5 12048.697 -4520.073 12130.736 -4438.036 L 12279.271 -4289.5 L 12587.2 -4289.5 L 12587.2 -4589.5 L 12265.129 -4589.5 L 12587.2 -4911.571 L 12587.2 -5219.5 L 12278.267 -5219.5 L 12280.2 -5074.567 C 12280.7 -5033.037 12280.7 -4995.454 12280.199 -4968.283 C 12279.948 -4954.681 12279.569 -4943.594 12279.064 -4935.936 C 12278.809 -4932.074 12278.507 -4928.909 12278.171 -4926.767 C 12277.993 -4925.629 12277.739 -4924.454 12277.478 -4923.679 C 12277.311 -4923.181 12276.927 -4922.339 12276.581 -4921.842 C 12276.01 -4921.019 12273.745 -4919.5 12272.2 -4919.5 C 12267.471 -4919.5 12195.699 -4987.931 12113.654 -5070.975 L 11965.129 -5219.5 L 11657.2 -5219.5 L 11657.2 -4909.5 L 11969.271 -4909.5 L 11657.2 -4597.429 L 11657.2 -4289.5 L 11957.2 -4289.5 Z M 1370.416 -4569.564 C 1372.882 -4570.839 1393.509 -4590.881 1417.626 -4615.966 C 1470.233 -4670.428 1587.566 -4734.152 1661.288 -4748.411 C 1672.732 -4750.354 1680.727 -4752.179 1685.507 -4753.969 C 1679.25 -4756.529 1664.711 -4759.655 1640.434 -4763.564 C 1565.018 -4776.412 1483.559 -4827.34 1418.647 -4894.012 C 1353.742 -4960.679 1304.115 -5044.317 1291.295 -5121.694 C 1289.328 -5134.768 1287.166 -5144.367 1284.903 -5150.812 C 1283.93 -5153.584 1283.105 -5155.398 1282.253 -5156.724 C 1281.538 -5155.561 1280.838 -5153.966 1280.008 -5151.538 C 1277.873 -5145.298 1275.906 -5135.912 1274.187 -5122.845 C 1265.902 -5058.963 1211.251 -4958.595 1150.866 -4895.068 C 1135.907 -4879.112 1122.724 -4864.436 1113.373 -4853.714 C 1108.707 -4848.363 1105.037 -4844.046 1102.581 -4841.049 C 1102.519 -4840.974 1102.458 -4840.899 1102.398 -4840.825 C 1223.281 -4762.528 1303.675 -4685.564 1347.598 -4606.933 C 1353.523 -4596.061 1359.66 -4586.246 1364.596 -4579.089 C 1369.023 -4572.669 1370.817 -4569.998 1370.416 -4569.564 Z M 1729.713 -4992.634 C 1733.252 -4992.446 1735.28 -4992.698 1737.29 -4993.654 C 1739.237 -4994.58 1740.189 -4995.548 1741.534 -4998.162 C 1747.744 -5010.238 1747.23 -5039.96 1747.23 -5104.5 L 1747.23 -5219.5 L 1631.23 -5219.5 C 1576.272 -5219.5 1546.671 -5219.007 1531.395 -5216.563 C 1524.156 -5215.405 1521.723 -5214.435 1520.523 -5212.936 C 1519.663 -5211.864 1519.854 -5211.494 1521.002 -5207.991 C 1523 -5199.003 1528.108 -5176.596 1532.111 -5158.585 C 1545.408 -5091.871 1623.528 -5015.728 1697.335 -4999.376 C 1711.908 -4995.858 1722.274 -4993.027 1729.713 -4992.634 Z M 1337.23 -6431.571 L 1488.759 -6280.042 L 1628.17 -6141.606 L 1661.628 -6175.968 C 1681.567 -6196.902 1697.23 -6214.167 1697.23 -6215.5 C 1697.23 -6217.761 1637.666 -6278.993 1563.694 -6352.964 C 1489.678 -6427.981 1427.23 -6492.761 1427.23 -6498.5 C 1427.23 -6500.283 1429.202 -6502.68 1430.07 -6503.159 C 1430.569 -6503.434 1431.371 -6503.73 1431.903 -6503.878 C 1432.783 -6504.124 1434.105 -6504.37 1435.521 -6504.57 C 1438.251 -6504.955 1442.28 -6505.335 1447.298 -6505.691 C 1457.283 -6506.398 1471.724 -6507.059 1489.446 -6507.622 C 1524.862 -6508.749 1573.692 -6509.5 1627.23 -6509.5 L 1817.23 -6509.5 L 1817.23 -6619.448 L 1627.302 -6617.5 C 1573.777 -6616.5 1524.966 -6616.25 1489.552 -6616.625 C 1471.831 -6616.813 1457.392 -6617.159 1447.408 -6617.647 C 1442.39 -6617.892 1438.361 -6618.181 1435.631 -6618.506 C 1434.213 -6618.674 1432.888 -6618.891 1432.005 -6619.117 C 1431.469 -6619.254 1430.655 -6619.537 1430.148 -6619.805 C 1429.258 -6620.276 1427.23 -6622.698 1427.23 -6624.5 C 1427.23 -6629.239 1490.667 -6695.007 1565.694 -6770.036 L 1700.159 -6904.5 L 1662.716 -6941.943 L 1624.26 -6979.484 L 1337.23 -6694.489 L 1337.23 -7099.5 L 1227.23 -7099.5 L 1227.23 -6691.429 L 1077.694 -6840.964 L 939.229 -6979.429 L 864.3 -6904.5 L 1000.765 -6768.036 L 1149.236 -6619.565 L 952.267 -6618.5 C 850.247 -6617.5 761.087 -6617.497 754.676 -6618.531 C 753.732 -6618.987 754.281 -6618.89 753.359 -6617.694 C 752.138 -6616.114 751.21 -6613.773 750.233 -6609.409 C 748.192 -6600.282 747.224 -6585.834 747.229 -6564.5 L 747.229 -6509.5 L 937.229 -6509.5 C 990.755 -6509.5 1039.558 -6508.999 1074.961 -6508.249 C 1092.672 -6507.873 1107.08 -6507.434 1117.044 -6506.963 C 1122.044 -6506.727 1126.016 -6506.477 1128.708 -6506.224 C 1130.09 -6506.094 1131.311 -6505.942 1132.128 -6505.791 C 1132.605 -6505.702 1133.27 -6505.538 1133.7 -6505.38 C 1134.024 -6505.261 1134.72 -6504.92 1135.118 -6504.629 C 1135.828 -6504.11 1137.23 -6501.948 1137.23 -6500.5 C 1137.23 -6495.764 1080.81 -6437.009 1013.792 -6368.991 C 929.24 -6283.441 890.228 -6246.161 877.959 -6224.418 C 872.308 -6214.403 872.57 -6210.012 876.761 -6203.504 C 881.214 -6196.587 890.125 -6189.158 901.823 -6176.976 L 936.288 -6141.605 L 1075.701 -6280.042 L 1227.23 -6431.571 L 1227.23 -6019.5 L 1337.23 -6019.5 Z M 10285.202 -6191.373 C 10282.214 -6341.174 10281.573 -6349.958 10255.921 -6391.913 C 10221.414 -6451.309 10184.507 -6484.357 10125.148 -6510.94 C 10083.768 -6529.752 10054.724 -6534.535 9939.101 -6537.502 C 9861.242 -6539.502 9798.555 -6537.754 9794.766 -6533.964 C 9792.895 -6532.094 9792.568 -6527.116 9793.652 -6517.415 C 9794.761 -6507.494 9797.626 -6494.98 9801.885 -6481.091 C 9810.43 -6453.226 9824.113 -6421.366 9839.404 -6398.253 C 9874.655 -6344.982 9934.746 -6307.11 9992.668 -6301.481 C 10011.827 -6299.958 10025.097 -6297.839 10033.388 -6294.361 C 10037.781 -6292.517 10041.59 -6289.765 10043.764 -6286.8 C 10046.012 -6283.734 10047.2 -6279.408 10047.2 -6275.5 C 10047.2 -6266.068 10054.038 -6236.755 10062.008 -6208.874 C 10074.612 -6165.167 10105.322 -6124.253 10143.961 -6093.145 C 10182.585 -6062.048 10227.8 -6041.784 10270.372 -6040.497 L 10289.065 -6039.718 Z M 10435.031 -6063.005 C 10521.064 -6103.199 10577.2 -6181.955 10577.2 -6259.5 C 10577.2 -6276.143 10577.988 -6287.109 10583.789 -6292.911 C 10589.591 -6298.712 10600.557 -6299.5 10617.2 -6299.5 C 10666.122 -6299.5 10715.073 -6322.91 10755.017 -6360.635 C 10794.999 -6398.396 10824.568 -6449.149 10833.263 -6504.293 L 10839.294 -6541.34 L 10696.343 -6537.502 C 10565.585 -6533.52 10542.607 -6530.773 10500.394 -6510.007 C 10439.053 -6480.47 10395.203 -6437.628 10365.705 -6376.331 C 10344.93 -6333.065 10342.174 -6313.09 10339.199 -6181.386 L 10335.338 -6039.5 L 10359.2 -6039.5 C 10373.469 -6039.391 10408.385 -6050.143 10435.031 -6063.005 Z M 6702.232 -6060.773 C 6703.077 -6066.827 6703.832 -6074.649 6704.492 -6084.219 C 6706.235 -6109.49 6707.23 -6146.068 6707.23 -6191.5 C 6707.23 -6312.726 6710.498 -6346.834 6725.784 -6375.788 C 6745.781 -6415.79 6800.938 -6449.5 6847.23 -6449.5 C 6875.36 -6449.5 7030.637 -6370.868 7117.892 -6313.734 C 7125.053 -6309.42 7131.226 -6306.798 7136.232 -6305.774 C 7137.55 -6305.504 7138.537 -6305.369 7139.37 -6305.351 C 7138.384 -6306.329 7137.126 -6307.466 7135.539 -6308.815 C 7130.15 -6313.395 7122.013 -6319.429 7111.525 -6326.628 C 7090.489 -6341.067 7060.66 -6359.71 7026.742 -6379.163 C 6958.645 -6418.219 6895.119 -6458.662 6885.533 -6469.134 C 6861.98 -6495.143 6851.186 -6532.24 6853.491 -6567.452 C 6855.796 -6602.666 6871.276 -6637.864 6897.978 -6660.298 C 6913.322 -6673.543 6972.674 -6710.796 7027.775 -6741.856 C 7074.703 -6768.314 7104.424 -6786.395 7121.23 -6799 C 7129.496 -6805.199 7134.076 -6809.558 7136.249 -6813.009 C 7136.25 -6813.009 7136.25 -6813.01 7136.25 -6813.01 C 7134.77 -6812.355 7132.996 -6811.526 7130.909 -6810.515 C 7124.034 -6807.186 7114.314 -6802.14 7102.344 -6795.719 C 7078.379 -6782.863 7045.689 -6764.647 7009.713 -6744.16 C 6870.082 -6663.908 6843.685 -6657.863 6780.944 -6690.053 C 6718.702 -6722.554 6707.23 -6757.775 6707.23 -6928.5 C 6707.23 -6973.932 6706.235 -7010.258 6704.492 -7035.278 C 6703.836 -7044.697 6703.087 -7052.387 6702.248 -7058.342 C 6701.395 -7052.251 6700.634 -7044.351 6699.968 -7034.658 C 6698.225 -7009.261 6697.23 -6972.432 6697.23 -6926.5 C 6697.23 -6760.735 6686.95 -6730.624 6622.91 -6689.279 C 6569.978 -6657.997 6525.355 -6668.912 6386.746 -6748.161 C 6353.309 -6767.625 6322.167 -6784.567 6298.744 -6796.278 C 6279.134 -6806.083 6266.948 -6811.697 6263.092 -6812.963 C 6263.228 -6812.753 6263.394 -6812.507 6263.596 -6812.214 C 6265.763 -6809.072 6269.685 -6805.512 6275.8 -6801.789 C 6544.274 -6642.418 6550.23 -6636.268 6550.23 -6559.5 C 6550.23 -6528.826 6542.664 -6502.362 6529.283 -6483.573 C 6517.676 -6467.985 6450.892 -6422.272 6381.738 -6382.174 C 6346.798 -6361.711 6315.699 -6342.303 6293.645 -6327.476 C 6286.278 -6322.523 6279.983 -6318.125 6274.911 -6314.383 C 6280.462 -6316.749 6287.09 -6319.81 6294.668 -6323.496 C 6317.704 -6334.703 6348.801 -6351.37 6382.739 -6370.835 C 6520.325 -6450.078 6566.783 -6462.085 6623.654 -6430.873 C 6685.823 -6396.387 6697.23 -6360.205 6697.23 -6192.5 C 6697.23 -6146.568 6698.225 -6109.739 6699.968 -6084.342 C 6700.629 -6074.71 6701.386 -6066.849 6702.232 -6060.773 Z M -4390.063 -6110.958 C -4328.094 -6143.018 -4311.416 -6171.157 -4296.745 -6270.242 C -4287.128 -6334.711 -4270.203 -6382.516 -4244.541 -6413.796 C -4218.695 -6445.3 -4182.83 -6460.791 -4137.857 -6461.5 C -4092.241 -6461.751 -4053.33 -6443.222 -4025.533 -6408.764 C -3997.886 -6374.492 -3979.954 -6323.57 -3973.823 -6259.974 C -3968.976 -6205.638 -3953.498 -6165.216 -3927.887 -6137.654 C -3902.368 -6110.19 -3867.877 -6096.5 -3822.8 -6096.5 C -3782.728 -6096.5 -3748.283 -6110.28 -3721.938 -6134.552 C -3695.585 -6158.831 -3678.522 -6192.364 -3674.777 -6232.978 C -3670.186 -6282.507 -3681.92 -6320.306 -3709.726 -6348.355 C -3737.643 -6376.516 -3780.961 -6393.686 -3841.288 -6399.524 C -3924.048 -6407.723 -3966.718 -6426.602 -4004.627 -6471.282 C -4041.206 -6514.571 -4047.61 -6561.06 -4027.467 -6614.295 C -4002.387 -6674.526 -3942.312 -6709.158 -3842.352 -6720.469 C -3784.913 -6726.345 -3760.108 -6734.876 -3734.774 -6753.52 C -3690.57 -6786.558 -3670.335 -6831.691 -3671.922 -6878.079 C -3673.51 -6924.506 -3697.003 -6970.337 -3743.766 -7004.475 C -3764.324 -7020.042 -3793.738 -7026.476 -3824.582 -7025.13 C -3855.459 -7023.782 -3886.028 -7014.618 -3908.758 -6997.532 C -3955.014 -6961.425 -3969.059 -6932.198 -3975.818 -6851.075 C -3981.469 -6787.412 -4000.23 -6737.319 -4029.6 -6705.012 C -4059.117 -6672.543 -4100.656 -6657.171 -4149.272 -6661.522 C -4192.686 -6666.303 -4227.893 -6684.89 -4252.398 -6716.965 C -4276.778 -6748.875 -4291.667 -6795.009 -4296.78 -6854.059 C -4301.668 -6908.002 -4314.498 -6947.05 -4336.941 -6974.86 C -4359.293 -7002.558 -4390.29 -7018.294 -4433.531 -7024.554 C -4462.884 -7029.083 -4490.175 -7023.017 -4514.807 -7009.885 C -4539.446 -6996.749 -4560.101 -6976.988 -4575.474 -6953.164 C -4590.843 -6929.344 -4600.191 -6902.62 -4601.761 -6875.23 C -4603.33 -6847.856 -4597.304 -6821.232 -4580.679 -6797.331 C -4543.641 -6741.18 -4515.458 -6727.226 -4427.353 -6719.48 C -4359.919 -6713.402 -4336.614 -6707.077 -4301.917 -6682.585 C -4267.213 -6658.088 -4246.069 -6627.49 -4237.632 -6596.501 C -4229.167 -6565.411 -4233.068 -6532.312 -4247.046 -6503.328 C -4274.85 -6445.68 -4344.417 -6399.5 -4436.8 -6399.5 C -4506.881 -6399.5 -4559.897 -6362.91 -4585.856 -6312.583 C -4598.798 -6287.492 -4604.501 -6259.969 -4601.699 -6231.601 C -4598.893 -6203.187 -4587.823 -6175.298 -4565.986 -6149.733 C -4541.759 -6120.354 -4483.597 -6090.226 -4447.676 -6089.498 C -4439.409 -6089.442 -4413.806 -6099.073 -4390.063 -6110.958 Z M 2927.23 -6204.5 C 2927.242 -6296.243 2932.51 -6349.452 2957.722 -6378.174 C 2983.107 -6407.091 3029.098 -6411.488 3106.425 -6408.496 C 3169.035 -6405.488 3204.118 -6401.983 3222.855 -6377 C 3241.303 -6352.402 3244.223 -6306.746 3247.227 -6221.683 L 3252.044 -6094.5 L 3552.325 -6094.5 L 3555.231 -6246.595 L 3558.134 -6399.5 L 3442.23 -6399.5 C 3359.594 -6399.504 3312.288 -6402.094 3284.597 -6417.104 C 3256.273 -6432.457 3247.848 -6461.51 3242.27 -6509.868 L 3235.499 -6558.392 L 3552.323 -6564.408 L 3555.231 -6716.595 L 3558.134 -6869.5 L 3443.23 -6869.5 C 3376.035 -6869.508 3311.024 -6874.735 3297.146 -6880.955 C 3279.903 -6888.981 3265.607 -6903.321 3256.389 -6921.626 C 3247.232 -6939.812 3242.286 -6962.972 3242.23 -6988.5 L 3242.23 -7024.595 L 3091.15 -7027.501 L 2939.798 -7029.441 L 2935.21 -6978.055 C 2931.04 -6930.339 2924.185 -6913.679 2901.498 -6893.716 C 2875.337 -6872.17 2862.677 -6869.54 2746.23 -6869.5 L 2627.23 -6869.5 L 2627.23 -6559.5 L 2937.23 -6559.5 L 2937.23 -6508.5 C 2937.084 -6470.659 2931.522 -6454.721 2906.766 -6429.964 C 2876.516 -6399.714 2873.23 -6399.5 2748.23 -6399.5 L 2627.23 -6399.5 L 2627.23 -6089.5 L 2927.23 -6089.5 Z M 8484.064 -6094.949 C 8506.416 -6086.821 8531.11 -6089.08 8554.496 -6104.686 C 8573.239 -6116.428 8581.501 -6129.642 8581.981 -6160.203 C 8582.473 -6191.596 8573.829 -6239.514 8556.349 -6318.417 C 8526.298 -6453.75 8525.345 -6468.686 8541.694 -6485.036 C 8547.735 -6491.076 8554.456 -6495.829 8562.067 -6496.702 C 8569.457 -6497.549 8578.668 -6494.785 8589.579 -6488.147 C 8610.723 -6475.282 8643.109 -6446.185 8699.645 -6393.153 C 8758.071 -6338.719 8792.548 -6308.921 8818.283 -6295.563 C 8843.193 -6282.634 8858.17 -6285.19 8880.955 -6296.953 C 8902.781 -6307.949 8915.83 -6321.847 8921.618 -6338.976 C 8927.408 -6356.108 8925.498 -6375.136 8914.729 -6397.324 C 8899.862 -6429.173 8895.351 -6430.882 8751.721 -6476.733 C 8665.571 -6503.787 8596.985 -6531.292 8592.548 -6540.744 C 8588.919 -6550.2 8587.233 -6559.409 8589.831 -6567.458 C 8592.387 -6575.376 8599.475 -6583.096 8610.997 -6590.141 C 8633.322 -6603.791 8676.153 -6618.744 8750.724 -6642.268 C 8828.128 -6666.735 8872.502 -6682.76 8897.663 -6698.838 C 8922.029 -6714.409 8927.23 -6728.386 8927.23 -6752.5 C 8927.23 -6764.864 8922.591 -6782.709 8917.733 -6793.311 C 8911.359 -6805.441 8895.863 -6816.96 8878.319 -6825.366 C 8860.805 -6833.758 8843.604 -6838.105 8832.855 -6834.771 C 8822.347 -6830.952 8762.487 -6781.707 8698.57 -6724.779 C 8635.523 -6667.738 8578.854 -6619.5 8573.23 -6619.5 C 8568.112 -6619.5 8554.651 -6626.232 8544.207 -6634.516 C 8534.955 -6641.252 8528.594 -6648.003 8530.371 -6670.15 C 8532.022 -6690.728 8539.846 -6727.07 8555.35 -6796.588 C 8573.33 -6875.492 8587.23 -6949.959 8587.23 -6962.5 C 8587.23 -6977.52 8582.009 -6989.749 8572.895 -7000.331 C 8563.763 -7010.932 8551.648 -7018.568 8537.53 -7023.255 C 8523.395 -7027.946 8508.586 -7029.213 8494.007 -7026.491 C 8479.433 -7023.771 8466.524 -7017.436 8455.878 -7006.08 C 8427.047 -6975.328 8427.167 -6953.056 8461.105 -6804.612 C 8476.114 -6737.07 8483.948 -6698.662 8485.47 -6675.072 C 8487.057 -6650.467 8481.031 -6639.876 8470.468 -6630.69 C 8465.312 -6626.411 8459.078 -6622.994 8451.861 -6623.415 C 8445.128 -6623.808 8436.515 -6627.464 8425.559 -6634.855 C 8404.158 -6649.291 8369.88 -6679.789 8308.854 -6735.812 C 8207.295 -6828.488 8183.577 -6842.907 8148.417 -6833.643 C 8121.228 -6827.449 8103.249 -6805.626 8095.784 -6779.74 C 8088.322 -6753.863 8092.318 -6726.483 8111.766 -6707.036 C 8122.077 -6696.724 8194.942 -6667.194 8274.775 -6641.255 C 8345.78 -6617.754 8382.215 -6605.608 8400.836 -6595.66 C 8410.513 -6590.49 8416.382 -6585.078 8419.188 -6579.358 C 8422.056 -6573.509 8422.23 -6566.807 8422.23 -6559.5 C 8422.23 -6552.193 8422.051 -6545.431 8419.017 -6539.551 C 8416.064 -6533.828 8409.914 -6528.443 8399.739 -6523.29 C 8380.127 -6513.356 8341.733 -6501.231 8266.732 -6477.731 C 8128.041 -6433.851 8114.494 -6428.06 8100.641 -6401.145 C 8086.457 -6373.976 8088.607 -6346.826 8101.409 -6325.169 C 8114.2 -6303.533 8136.557 -6289.5 8166.23 -6289.5 C 8201.796 -6289.5 8220.082 -6302.368 8323.801 -6400.139 C 8366.857 -6440.69 8395.608 -6466.164 8415.692 -6480.563 C 8436.246 -6495.3 8449.988 -6498.713 8460.134 -6495.123 C 8467.454 -6492.324 8473.923 -6487.786 8477.766 -6480.59 C 8481.444 -6473.702 8483.238 -6463.574 8482.979 -6450.029 C 8482.472 -6423.508 8474.635 -6380.034 8459.12 -6307.455 C 8441.154 -6228.638 8429.987 -6157.143 8433.799 -6149.531 C 8443.203 -6121.483 8461.682 -6103.088 8484.064 -6094.949 Z M 12037.719 -6246.719 C 12058.236 -6288.252 12077.521 -6325.82 12092.04 -6352.982 C 12099.307 -6366.576 12105.416 -6377.629 12109.885 -6385.261 C 12112.132 -6389.099 12114.031 -6392.18 12115.444 -6394.264 C 12116.948 -6396.484 12119.921 -6399.5 12122.2 -6399.5 C 12124.491 -6399.5 12127.472 -6396.441 12128.974 -6394.195 C 12130.385 -6392.084 12132.282 -6388.965 12134.528 -6385.082 C 12138.996 -6377.357 12145.103 -6366.182 12152.368 -6352.465 C 12166.887 -6325.056 12186.165 -6287.249 12206.678 -6245.725 C 12227.158 -6204.765 12246.609 -6167.359 12261.58 -6140.161 C 12269.057 -6126.579 12275.359 -6115.642 12280.121 -6108.067 C 12283.662 -6102.432 12285.272 -6099.305 12285.532 -6098.534 C 12297.199 -6099.434 12360.567 -6099.5 12442.2 -6099.5 L 12587.2 -6099.5 L 12587.2 -6401.419 L 12432.958 -6479.031 L 12265.963 -6562.529 L 12432.97 -6644.975 L 12587.2 -6722.581 L 12587.2 -7030.404 L 12435.296 -7027.501 L 12280.337 -7024.559 L 12206.684 -6875.288 C 12186.173 -6833.765 12166.894 -6795.708 12152.377 -6768.051 C 12145.113 -6754.212 12139.008 -6742.914 12134.541 -6735.097 C 12132.296 -6731.168 12130.401 -6728.011 12128.991 -6725.874 C 12127.492 -6723.601 12124.995 -6721.781 12122.797 -6720.757 C 12121.336 -6720.803 12119.819 -6720.94 12119.055 -6721.446 C 12118.586 -6721.758 12117.957 -6722.326 12117.589 -6722.721 C 12116.984 -6723.37 12116.194 -6724.394 12115.434 -6725.485 C 12113.977 -6727.575 12112.017 -6730.722 12109.704 -6734.651 C 12105.107 -6742.46 12098.808 -6753.86 12091.293 -6767.889 C 12076.274 -6795.923 12056.248 -6834.725 12034.738 -6877.243 L 11959.101 -7029.5 L 11657.2 -7029.5 L 11657.2 -6718.581 L 11973.323 -6559.5 L 11809.448 -6477.034 L 11657.2 -6401.401 L 11657.2 -6094.596 L 11965.071 -6100.441 Z M -2202.924 -6128.027 C -2132.49 -6161.667 -2068.418 -6216.913 -2003.772 -6301.537 C -1957.732 -6360.976 -1878.972 -6492.45 -1873.143 -6517.118 C -1874.777 -6517.582 -1877.039 -6518.02 -1880.196 -6518.472 C -1887.788 -6519.559 -1899.108 -6520.446 -1914.275 -6521.13 C -1944.69 -6522.501 -1989.805 -6523 -2048.754 -6522.5 C -2098.805 -6522 -2143.418 -6522.501 -2174.854 -6523.628 C -2190.597 -6524.193 -2203.166 -6524.921 -2211.445 -6525.76 C -2215.64 -6526.185 -2219.025 -6526.679 -2221.117 -6527.202 C -2222.318 -6527.503 -2223.901 -6528.102 -2224.785 -6528.766 C -2225.587 -6529.37 -2226.977 -6531.502 -2227.025 -6532.966 C -2227.073 -6534.453 -2225.751 -6536.742 -2224.923 -6537.404 C -2219.514 -6541.732 -2198.798 -6552.074 -2179.55 -6559.184 C -2130.107 -6577.896 -2063.035 -6625.336 -2010.336 -6678.036 C -1966.112 -6722.259 -1882.523 -6831.287 -1873.58 -6853.553 C -1875.062 -6853.858 -1876.951 -6854.163 -1879.325 -6854.482 C -1886.193 -6855.404 -1896.104 -6856.263 -1908.476 -6857.009 C -1933.273 -6858.504 -1967.373 -6859.501 -2004.8 -6859.5 L -2168.135 -6859.5 L -2088.706 -6892.122 C -2047.966 -6908.998 -1993.622 -6939.291 -1949.255 -6967.83 C -1911.072 -6992.392 -1881.92 -7014.085 -1874.59 -7024.432 C -1875.493 -7024.496 -1876.501 -7024.562 -1877.62 -7024.628 C -1883.816 -7024.994 -1892.949 -7025.354 -1904.776 -7025.705 C -1928.453 -7026.408 -1962.694 -7027.063 -2004.991 -7027.625 C -2089.599 -7028.75 -2206.313 -7029.5 -2334.795 -7029.5 L -2789.525 -7028.528 L -2759.517 -7002.271 C -2737.846 -6983.516 -2675.405 -6945.885 -2621.582 -6918.981 L -2503.147 -6860.948 L -2661.691 -6857.501 L -2789.789 -6854.696 L -2762.602 -6812.216 C -2705.975 -6725.671 -2577.995 -6605.571 -2500.61 -6567.995 C -2468.582 -6552.481 -2450.964 -6543.669 -2444.853 -6538.237 C -2442.983 -6536.575 -2441.14 -6533.752 -2441.038 -6531.588 C -2440.972 -6530.189 -2441.774 -6527.971 -2442.618 -6526.96 C -2443.325 -6526.115 -2444.647 -6525.173 -2445.614 -6524.698 C -2448.702 -6523.184 -2454.376 -6522.297 -2461.234 -6521.532 C -2478.567 -6519.517 -2560.84 -6519.501 -2644.889 -6521.501 C -2686.88 -6522.001 -2725.094 -6522.5 -2752.823 -6522.625 C -2766.679 -6522.687 -2777.863 -6522.656 -2785.596 -6522.486 C -2787.96 -6522.433 -2789.96 -6522.37 -2791.603 -6522.292 C -2783.139 -6500.273 -2731.76 -6407.981 -2701.653 -6363.293 C -2640.891 -6271.598 -2577.576 -6202.272 -2519.043 -6163.671 C -2446.678 -6114.978 -2404.01 -6101.382 -2327.735 -6100.5 C -2276.367 -6099.431 -2252.463 -6105.186 -2202.924 -6128.027 Z M 5103.276 -6113.408 C 5200.344 -6132.283 5272.201 -6160.375 5314.752 -6194.046 C 5335.831 -6210.725 5348.986 -6227.952 5354.685 -6246.514 C 5360.348 -6264.963 5358.536 -6283.311 5347.812 -6303.158 C 5333.717 -6329.225 5273.148 -6364.985 5205.628 -6387.764 L 5148.575 -6407.782 L 5134.417 -6412.75 L 5186.712 -6429.264 C 5286.474 -6461.388 5342.334 -6503.076 5354.419 -6545.738 C 5360.341 -6566.643 5355.77 -6586.453 5339.563 -6606.876 C 5323.124 -6627.593 5295.526 -6647.172 5255.21 -6664.926 C 5228.376 -6676.859 5192.808 -6689.715 5176.085 -6693.633 C 5168.802 -6695.642 5162.761 -6697.392 5159.288 -6699.146 C 5157.289 -6700.156 5154.854 -6702.176 5154.082 -6704.148 C 5153.593 -6705.396 5153.582 -6707.714 5154.05 -6708.979 C 5154.442 -6710.035 5155.428 -6711.419 5156.251 -6712.216 C 5160.98 -6716.797 5177.021 -6722.699 5206.526 -6733.201 C 5279.114 -6760.011 5335.748 -6792.81 5347.794 -6816.807 C 5360.751 -6840.501 5361.64 -6862.072 5352.295 -6883.281 C 5342.866 -6904.681 5323.205 -6924.209 5293.03 -6942.339 C 5232.228 -6978.87 5132.303 -7006.603 5000.712 -7020.527 C 4878.681 -7033.021 4747.297 -7021.802 4641.05 -6995.645 C 4534.978 -6969.531 4455.669 -6929.802 4436.838 -6883.56 C 4430.53 -6868.915 4430.005 -6853.849 4434.293 -6838.604 C 4438.597 -6823.303 4447.469 -6809.24 4461.495 -6797.287 C 4487.91 -6773.675 4572.842 -6733.199 4613.302 -6724.384 L 4648.344 -6716.374 L 4665.539 -6712.444 L 4598.84 -6689.766 C 4531.217 -6666.929 4474.305 -6636.638 4454.953 -6615.163 C 4440.116 -6598.532 4432.843 -6582.517 4431.686 -6566.117 C 4430.534 -6549.781 4435.59 -6534.47 4447.248 -6518.725 C 4470.926 -6486.749 4519.773 -6457.528 4592.753 -6434.262 L 4646.811 -6416.243 L 4661.58 -6411.32 L 4591.707 -6389.723 C 4544.616 -6375.389 4503.434 -6354.268 4473.68 -6331.058 C 4444.114 -6307.993 4427.23 -6284.545 4427.23 -6263.5 C 4427.23 -6237.201 4454.648 -6207.93 4500.551 -6180.413 C 4546.674 -6152.764 4609.599 -6128.79 4678.19 -6115.407 C 4771.705 -6096.456 5010.759 -6095.454 5103.276 -6113.408 Z M -686.23 -6228.76 C -668.325 -6264.553 -645.521 -6323.031 -635.596 -6357.809 C -626.574 -6392.879 -617.144 -6424.197 -614.306 -6427.036 C -613.293 -6428.048 -610.88 -6428.727 -609.793 -6428.638 C -609.039 -6428.577 -607.94 -6428.258 -607.285 -6427.978 C -606.215 -6427.521 -604.766 -6426.649 -603.413 -6425.691 C -600.842 -6423.871 -597.347 -6420.947 -593.386 -6417.306 C -585.537 -6410.089 -575.108 -6399.402 -564.023 -6386.81 L -528.409 -6346.63 L -494.157 -6378.178 C -473.248 -6397.092 -453.618 -6416.654 -449.93 -6422.273 C -447.269 -6425.713 -443.684 -6429.484 -440.447 -6430.148 C -438.398 -6430.568 -435.155 -6429.647 -433.483 -6428.174 C -432.143 -6426.993 -430.706 -6424.876 -429.643 -6422.676 C -425.797 -6414.717 -421.416 -6397.199 -413.915 -6365.696 C -401.52 -6317.031 -376.473 -6255.842 -351.946 -6208.032 C -339.702 -6184.165 -327.76 -6163.966 -317.594 -6150.369 C -312.567 -6143.647 -308.319 -6138.936 -304.632 -6136.092 C -302.905 -6134.759 -301.914 -6134.205 -300.827 -6133.907 C -300.558 -6133.833 -300.43 -6133.753 -300.374 -6133.691 C -300.369 -6133.717 -300.359 -6133.749 -300.343 -6133.787 C -283.218 -6143.931 -223.377 -6261.398 -202.535 -6327.016 C -142.64 -6515.013 -162.508 -6715.159 -262.267 -6921.315 C -282.265 -6962.31 -292.203 -6982.679 -298.879 -6990.175 C -300.329 -6991.803 -300.823 -6992.18 -301.548 -6992.416 C -301.573 -6992.423 -301.593 -6992.431 -301.61 -6992.439 C -301.649 -6992.402 -301.717 -6992.353 -301.826 -6992.29 C -303.758 -6991.179 -305.924 -6988.133 -309.639 -6982.683 C -334.372 -6948.159 -379.067 -6842.784 -402.991 -6765.03 C -409.008 -6745.474 -415.047 -6727.358 -419.818 -6714.173 C -422.211 -6707.561 -424.327 -6702.08 -425.959 -6698.289 C -426.789 -6696.359 -427.576 -6694.691 -428.199 -6693.568 C -428.542 -6692.949 -429.005 -6692.221 -429.374 -6691.759 C -429.931 -6691.061 -432.1 -6689.5 -433.77 -6689.5 C -438.494 -6689.5 -461.313 -6710.978 -484.418 -6736.08 L -522.891 -6776.385 L -566.254 -6733.945 C -582.885 -6717.325 -595.584 -6706.431 -604.438 -6701.093 C -609.093 -6698.287 -613.771 -6696.577 -617.116 -6696.642 C -619.094 -6696.68 -621.728 -6697.58 -623.197 -6698.783 C -624.629 -6699.956 -625.927 -6702.235 -626.559 -6704.063 C -628.512 -6711.898 -640.545 -6749.017 -651.573 -6788.11 C -673.438 -6861.744 -730.73 -6983.02 -746.181 -6986.703 C -746.772 -6987.684 -747.591 -6986.68 -750.814 -6983.594 C -754.318 -6980.238 -758.303 -6975.014 -762.95 -6967.757 C -772.336 -6953.1 -783.321 -6931.653 -794.828 -6905.839 C -817.879 -6854.13 -842.499 -6786.019 -858.932 -6723.236 C -879.851 -6642.819 -882.845 -6461.065 -863.919 -6385.713 C -849.069 -6323.155 -781.674 -6172.242 -757.091 -6144.887 C -748.675 -6135.974 -746.002 -6133 -743.77 -6133 C -741.743 -6133 -740.273 -6135.491 -733.845 -6144.398 C -726.936 -6154.264 -705.167 -6191.879 -686.23 -6228.76 Z M 10137.928 -6614.954 C 10166.465 -6628.665 10203.759 -6658.096 10222.416 -6679.768 C 10276.862 -6741.682 10287.263 -6788.058 10287.2 -6950.5 L 10287.2 -7086.315 L 10251.267 -7078.615 C 10200.999 -7067.396 10154.813 -7040.034 10118.891 -7003.495 C 10082.991 -6966.979 10058.368 -6922.458 10052.154 -6875.822 C 10049.141 -6852.734 10046.853 -6839.281 10040.678 -6831.814 C 10034.199 -6823.978 10023.137 -6822.521 10006.508 -6821.509 C 9956.982 -6818.258 9910.68 -6794.895 9872.608 -6757.436 C 9834.481 -6719.922 9805.851 -6669.241 9793.115 -6610.433 L 9788.463 -6589.5 L 9935.23 -6589.5 C 10079.974 -6589.49 10089.837 -6590.217 10137.928 -6614.954 Z M 10832.287 -6620.571 C 10822.556 -6672.825 10796.934 -6718.938 10761.189 -6754.19 C 10725.465 -6789.422 10680.751 -6812.799 10631.604 -6818.536 C 10609.104 -6821.536 10595.957 -6823.401 10588.505 -6830.999 C 10581.077 -6838.573 10579.245 -6851.832 10576.245 -6874.832 C 10567.543 -6936.927 10547.384 -6972.38 10493.917 -7018.728 C 10471.88 -7038.403 10437.339 -7057.206 10405.765 -7069.464 C 10390.02 -7075.577 10375.431 -7079.896 10363.509 -7081.83 C 10351.799 -7083.729 10345.246 -7083.822 10341.932 -7081.147 C 10338.569 -7075.612 10336.196 -7011.485 10339.196 -6932.69 C 10342.168 -6810.009 10345.929 -6784.953 10364.716 -6745.646 C 10393.207 -6685.36 10438.992 -6640.559 10499.286 -6613.044 C 10543.45 -6591.284 10561.462 -6589.486 10696.2 -6589.5 L 10838.165 -6589.5 Z" style="fill: rgb(39, 210, 173);" transform="matrix(1, 0, 0, 1, -2680.56621612826, 1170.7108390219037)"/>
</svg>