<?xml version="1.0" standalone="no"?>
<!DOCTYPE svg PUBLIC "-//W3C//DTD SVG 20010904//EN"
 "http://www.w3.org/TR/2001/REC-SVG-20010904/DTD/svg10.dtd">
<svg version="1.0" xmlns="http://www.w3.org/2000/svg"
 width="128.000000pt" height="128.000000pt" viewBox="0 0 128.000000 128.000000"
 preserveAspectRatio="xMidYMid meet">

<g transform="translate(0.000000,128.000000) scale(0.100000,-0.100000)"
fill="#000000" stroke="none">
<path d="M0 640 l0 -640 640 0 640 0 0 640 0 640 -640 0 -640 0 0 -640z m928
345 c4 -28 -608 -638 -635 -633 -50 10 -25 40 283 350 311 311 344 337 352
283z m50 -327 c7 -7 12 -19 12 -28 0 -20 -323 -340 -343 -340 -8 0 -20 7 -28
16 -11 13 11 39 162 190 95 96 176 174 179 174 3 0 11 -5 18 -12z"/>
</g>
</svg>
