<?xml version="1.0" standalone="no"?>
<!DOCTYPE svg PUBLIC "-//W3C//DTD SVG 20010904//EN"
 "http://www.w3.org/TR/2001/REC-SVG-20010904/DTD/svg10.dtd">
<svg version="1.0" xmlns="http://www.w3.org/2000/svg"
 width="160.000000pt" height="150.000000pt" viewBox="0 0 160.000000 150.000000"
 preserveAspectRatio="xMidYMid meet">
<metadata>
Created by potrace 1.16, written by Peter Selinger 2001-2019
</metadata>
<g transform="translate(0.000000,150.000000) scale(0.100000,-0.100000)"
fill="#000000" stroke="none">
<path d="M0 750 l0 -750 800 0 800 0 0 750 0 750 -800 0 -800 0 0 -750z m947
400 c74 -34 145 -98 212 -189 49 -67 121 -190 121 -207 0 -5 -79 -8 -181 -7
-100 1 -178 -2 -173 -6 5 -4 25 -14 44 -21 50 -19 118 -67 171 -120 47 -47
139 -168 139 -182 0 -4 -62 -8 -137 -8 l-138 0 56 -23 c82 -34 219 -122 219
-141 0 -3 -210 -6 -467 -6 l-468 1 40 35 c22 19 85 57 139 84 l100 49 -138 3
-137 3 32 50 c57 87 186 208 264 246 64 31 68 34 41 37 -17 2 -99 2 -183 0
-84 -1 -153 -2 -153 0 0 10 60 118 96 173 79 120 180 210 273 244 20 8 65 14
101 14 52 1 77 -5 127 -29z"/>
</g>
</svg>
