<?xml version="1.0" standalone="no"?>
<!DOCTYPE svg PUBLIC "-//W3C//DTD SVG 20010904//EN"
 "http://www.w3.org/TR/2001/REC-SVG-20010904/DTD/svg10.dtd">
<svg version="1.0" xmlns="http://www.w3.org/2000/svg"
 width="160.000000pt" height="150.000000pt" viewBox="0 0 160.000000 150.000000"
 preserveAspectRatio="xMidYMid meet">
<metadata>
Created by potrace 1.16, written by Peter Selinger 2001-2019
</metadata>
<g transform="translate(0.000000,150.000000) scale(0.100000,-0.100000)"
fill="#000000" stroke="none">
<path d="M0 750 l0 -750 800 0 800 0 0 750 0 750 -800 0 -800 0 0 -750z m774
387 l47 -26 52 27 c36 18 72 27 119 30 59 4 75 0 132 -26 75 -35 135 -103 156
-176 18 -66 8 -164 -23 -220 l-25 -44 29 -58 c80 -157 -6 -350 -178 -400 -97
-28 -179 0 -209 72 -22 53 -19 225 5 272 20 39 66 72 100 72 18 0 21 6 21 39
0 36 -2 39 -34 45 -41 8 -94 63 -103 107 -5 25 -10 29 -37 29 -29 0 -34 -5
-53 -49 -22 -53 -69 -91 -111 -91 -21 0 -23 -4 -20 -36 3 -32 7 -37 43 -50 84
-28 112 -94 103 -245 -5 -84 -18 -113 -69 -152 -63 -46 -183 -26 -263 44 -102
90 -130 221 -73 344 l27 60 -24 48 c-80 157 -7 341 161 403 60 22 170 13 227
-19z"/>
</g>
</svg>
