<?xml version="1.0" standalone="no"?>
<!DOCTYPE svg PUBLIC "-//W3C//DTD SVG 20010904//EN"
 "http://www.w3.org/TR/2001/REC-SVG-20010904/DTD/svg10.dtd">
<svg version="1.0" xmlns="http://www.w3.org/2000/svg"
 width="160.000000pt" height="150.000000pt" viewBox="0 0 160.000000 150.000000"
 preserveAspectRatio="xMidYMid meet">
<metadata>
Created by potrace 1.16, written by Peter Selinger 2001-2019
</metadata>
<g transform="translate(0.000000,150.000000) scale(0.100000,-0.100000)"
fill="#000000" stroke="none">
<path d="M0 750 l0 -750 800 0 800 0 0 750 0 750 -800 0 -800 0 0 -750z m630
305 c21 -44 44 -102 51 -130 6 -27 14 -52 15 -54 2 -2 22 15 44 40 l39 44 38
-35 c21 -19 41 -39 45 -45 10 -13 12 -8 27 55 15 60 85 212 106 230 11 9 19 3
41 -32 136 -216 143 -483 18 -747 -43 -92 -45 -94 -60 -73 -25 36 -70 142 -94
220 -12 39 -24 72 -26 72 -2 0 -21 -18 -43 -40 -21 -22 -42 -40 -47 -40 -5 0
-27 19 -51 42 -30 29 -44 37 -47 27 -2 -8 -14 -45 -25 -84 -22 -74 -81 -197
-98 -202 -12 -4 -74 121 -102 205 -42 130 -49 286 -19 412 13 54 82 207 105
233 17 18 18 18 31 0 8 -10 32 -54 52 -98z"/>
</g>
</svg>
