<?xml version="1.0" standalone="no"?>
<!DOCTYPE svg PUBLIC "-//W3C//DTD SVG 20010904//EN"
 "http://www.w3.org/TR/2001/REC-SVG-20010904/DTD/svg10.dtd">
<svg version="1.0" xmlns="http://www.w3.org/2000/svg"
 width="160.000000pt" height="150.000000pt" viewBox="0 0 160.000000 150.000000"
 preserveAspectRatio="xMidYMid meet">
<metadata>
Created by potrace 1.16, written by Peter Selinger 2001-2019
</metadata>
<g transform="translate(0.000000,150.000000) scale(0.100000,-0.100000)"
fill="#000000" stroke="none">
<path d="M0 750 l0 -750 800 0 800 0 0 750 0 750 -800 0 -800 0 0 -750z m1040
426 c195 -36 294 -114 250 -197 -15 -27 -73 -62 -144 -86 l-59 -20 65 -22 c87
-29 148 -81 148 -125 0 -55 -78 -114 -185 -140 -29 -8 -28 -9 31 -30 73 -27
131 -61 144 -86 63 -117 -146 -213 -460 -212 -191 0 -326 29 -412 88 -62 43
-71 102 -22 145 27 24 113 65 154 74 l35 8 -50 17 c-68 23 -126 54 -146 76
-61 69 -7 142 140 189 l54 18 -55 17 c-95 29 -168 86 -168 131 0 55 106 121
240 150 105 22 332 24 440 5z"/>
</g>
</svg>
