<?xml version="1.0" standalone="no"?>
<!DOCTYPE svg PUBLIC "-//W3C//DTD SVG 20010904//EN"
 "http://www.w3.org/TR/2001/REC-SVG-20010904/DTD/svg10.dtd">
<svg version="1.0" xmlns="http://www.w3.org/2000/svg"
 width="160.000000pt" height="150.000000pt" viewBox="0 0 160.000000 150.000000"
 preserveAspectRatio="xMidYMid meet">
<metadata>
Created by potrace 1.16, written by Peter Selinger 2001-2019
</metadata>
<g transform="translate(0.000000,150.000000) scale(0.100000,-0.100000)"
fill="#000000" stroke="none">
<path d="M0 750 l0 -750 800 0 800 0 0 750 0 750 -800 0 -800 0 0 -750z m820
323 c0 -167 -9 -199 -74 -271 -60 -66 -117 -84 -282 -90 -88 -3 -144 -1 -148
6 -9 14 19 99 47 141 36 54 98 93 157 99 38 3 50 8 50 21 0 10 7 41 16 70 26
88 125 167 212 170 22 1 22 0 22 -146z m145 123 c87 -41 145 -122 145 -201 0
-33 2 -35 35 -35 100 0 203 -97 221 -209 l7 -44 -149 5 c-130 4 -155 8 -198
28 -62 30 -106 74 -137 136 -21 44 -24 65 -27 197 l-4 147 29 0 c15 0 51 -11
78 -24z m-297 -552 c29 -14 67 -44 86 -66 55 -63 66 -111 66 -274 l0 -142 -42
9 c-102 23 -190 112 -203 207 -6 46 -8 48 -41 50 -101 7 -192 96 -218 215 l-6
27 153 0 c145 0 156 -1 205 -26z m697 -11 c-20 -106 -112 -195 -210 -205 -39
-4 -40 -5 -46 -49 -9 -63 -30 -100 -84 -147 -45 -40 -141 -77 -159 -62 -4 5
-7 73 -4 152 3 123 7 149 26 189 29 61 76 107 137 135 45 22 64 24 199 24
l148 0 -7 -37z"/>
</g>
</svg>
