<?xml version="1.0" standalone="no"?>
<!DOCTYPE svg PUBLIC "-//W3C//DTD SVG 20010904//EN"
 "http://www.w3.org/TR/2001/REC-SVG-20010904/DTD/svg10.dtd">
<svg version="1.0" xmlns="http://www.w3.org/2000/svg"
 width="160.000000pt" height="150.000000pt" viewBox="0 0 160.000000 150.000000"
 preserveAspectRatio="xMidYMid meet">
<metadata>
Created by potrace 1.16, written by Peter Selinger 2001-2019
</metadata>
<g transform="translate(0.000000,150.000000) scale(0.100000,-0.100000)"
fill="#000000" stroke="none">
<path d="M0 750 l0 -750 800 0 800 0 0 750 0 750 -800 0 -800 0 0 -750z m682
404 c23 -16 51 -47 62 -70 29 -57 43 -72 76 -79 43 -9 84 17 112 72 53 102
172 142 268 91 149 -80 143 -280 -10 -358 -53 -27 -74 -60 -66 -104 7 -37 20
-51 88 -89 36 -21 53 -39 74 -82 35 -72 31 -137 -13 -198 -92 -127 -270 -109
-344 34 -46 92 -131 92 -178 1 -25 -48 -66 -87 -113 -106 -161 -68 -324 111
-247 271 19 40 89 103 114 103 19 0 44 34 51 68 9 43 -13 74 -75 108 -117 63
-147 206 -63 306 63 74 183 89 264 32z"/>
<path d="M745 789 c11 -44 11 -85 1 -133 l-9 -39 29 9 c37 11 100 11 143 0
l34 -8 -8 33 c-11 45 -11 96 -1 138 l8 34 -38 -9 c-49 -10 -79 -10 -128 1
l-39 8 8 -34z"/>
</g>
</svg>
