<?xml version="1.0" standalone="no"?>
<!DOCTYPE svg PUBLIC "-//W3C//DTD SVG 20010904//EN"
 "http://www.w3.org/TR/2001/REC-SVG-20010904/DTD/svg10.dtd">
<svg version="1.0" xmlns="http://www.w3.org/2000/svg"
 width="160.000000pt" height="150.000000pt" viewBox="0 0 160.000000 150.000000"
 preserveAspectRatio="xMidYMid meet">
<metadata>
Created by potrace 1.16, written by Peter Selinger 2001-2019
</metadata>
<g transform="translate(0.000000,150.000000) scale(0.100000,-0.100000)"
fill="#000000" stroke="none">
<path d="M0 750 l0 -750 800 0 800 0 0 750 0 750 -800 0 -800 0 0 -750z m840
200 c41 -83 77 -150 80 -150 3 0 39 68 80 150 l74 150 158 0 158 0 0 -155 0
-155 -157 -79 -157 -78 157 -79 157 -79 -2 -155 -3 -155 -155 0 -155 0 -75
152 c-41 83 -77 152 -80 152 -3 1 -40 -69 -83 -154 l-77 -155 -155 0 -155 0 0
159 0 160 155 78 155 78 -155 78 -155 77 0 158 0 157 158 -3 158 -3 74 -149z"/>
</g>
</svg>
