<?xml version="1.0" standalone="no"?>
<!DOCTYPE svg PUBLIC "-//W3C//DTD SVG 20010904//EN"
 "http://www.w3.org/TR/2001/REC-SVG-20010904/DTD/svg10.dtd">
<svg version="1.0" xmlns="http://www.w3.org/2000/svg"
 width="160.000000pt" height="150.000000pt" viewBox="0 0 160.000000 150.000000"
 preserveAspectRatio="xMidYMid meet">
<metadata>
Created by potrace 1.16, written by Peter Selinger 2001-2019
</metadata>
<g transform="translate(0.000000,150.000000) scale(0.100000,-0.100000)"
fill="#000000" stroke="none">
<path d="M0 750 l0 -750 800 0 800 0 0 750 0 750 -800 0 -800 0 0 -750z m810
343 c0 -121 3 -154 18 -182 19 -38 72 -71 115 -71 27 0 96 31 167 74 89 55
129 75 134 67 3 -5 -50 -41 -117 -80 -68 -39 -131 -79 -141 -89 -45 -51 -39
-141 14 -186 17 -14 75 -50 130 -81 92 -52 118 -71 108 -80 -2 -2 -59 29 -128
68 -104 60 -132 72 -170 72 -53 0 -92 -24 -115 -72 -11 -23 -15 -66 -15 -177
0 -83 -4 -146 -9 -146 -6 0 -11 70 -13 159 l-3 160 -29 30 c-35 36 -85 55
-124 46 -16 -3 -58 -23 -93 -43 -151 -88 -178 -102 -183 -93 -3 5 43 36 103
70 133 74 168 102 180 146 11 41 0 99 -25 126 -10 11 -73 51 -141 90 -68 39
-121 74 -118 79 3 5 60 -23 128 -62 137 -79 181 -91 236 -60 61 33 71 67 71
234 0 92 4 148 10 148 6 0 10 -56 10 -147z"/>
</g>
</svg>
