<?xml version="1.0" standalone="no"?>
<!DOCTYPE svg PUBLIC "-//W3C//DTD SVG 20010904//EN"
 "http://www.w3.org/TR/2001/REC-SVG-20010904/DTD/svg10.dtd">
<svg version="1.0" xmlns="http://www.w3.org/2000/svg"
 width="160.000000pt" height="150.000000pt" viewBox="0 0 160.000000 150.000000"
 preserveAspectRatio="xMidYMid meet">
<metadata>
Created by potrace 1.16, written by Peter Selinger 2001-2019
</metadata>
<g transform="translate(0.000000,150.000000) scale(0.100000,-0.100000)"
fill="#000000" stroke="none">
<path d="M0 750 l0 -750 800 0 800 0 0 750 0 750 -800 0 -800 0 0 -750z m865
424 c38 -25 39 -60 4 -218 -31 -138 -32 -148 -16 -164 22 -22 36 -13 156 98
111 104 135 115 182 92 45 -23 58 -61 36 -107 -16 -33 -22 -36 -167 -82 -154
-48 -178 -64 -150 -98 7 -8 77 -35 156 -60 151 -48 174 -63 174 -116 0 -56
-68 -102 -114 -77 -11 6 -69 55 -130 109 -60 55 -112 99 -116 99 -3 0 -15 -6
-25 -14 -18 -13 -18 -18 13 -158 18 -80 32 -155 32 -167 0 -34 -43 -71 -83
-71 -42 0 -80 38 -80 79 0 16 13 88 28 161 29 130 28 157 -2 167 -10 4 -56
-33 -188 -151 -75 -67 -118 -78 -158 -38 -28 28 -28 85 -1 113 11 11 85 41
165 67 142 46 144 47 144 77 0 29 -1 29 -152 77 -139 44 -154 51 -169 79 -29
57 8 119 70 119 37 0 57 -14 161 -112 86 -81 114 -101 131 -94 28 11 27 39 -5
187 -35 158 -34 172 11 203 29 20 62 20 93 0z"/>
</g>
</svg>
