<?xml version="1.0" standalone="no"?>
<!DOCTYPE svg PUBLIC "-//W3C//DTD SVG 20010904//EN"
 "http://www.w3.org/TR/2001/REC-SVG-20010904/DTD/svg10.dtd">
<svg version="1.0" xmlns="http://www.w3.org/2000/svg"
 width="160.000000pt" height="150.000000pt" viewBox="0 0 160.000000 150.000000"
 preserveAspectRatio="xMidYMid meet">
<metadata>
Created by potrace 1.16, written by Peter Selinger 2001-2019
</metadata>
<g transform="translate(0.000000,150.000000) scale(0.100000,-0.100000)"
fill="#000000" stroke="none">
<path d="M0 750 l0 -750 800 0 800 0 0 750 0 750 -800 0 -800 0 0 -750z m935
310 c-58 -58 -105 -109 -105 -113 0 -4 98 -7 218 -7 l217 0 110 -110 110 -110
-113 -112 -112 -113 -112 112 -113 112 -110 -109 -110 -110 108 -108 c59 -59
107 -112 107 -117 0 -12 -201 -215 -213 -215 -8 0 -184 173 -207 203 -12 17
-3 29 96 128 l109 109 -110 110 -110 110 -112 -112 -113 -112 -111 113 -111
114 108 108 109 109 225 0 225 0 -108 108 c-59 59 -107 112 -107 117 0 5 48
58 107 117 l108 108 112 -112 113 -113 -105 -105z"/>
</g>
</svg>
