<?xml version="1.0" standalone="no"?>
<!DOCTYPE svg PUBLIC "-//W3C//DTD SVG 20010904//EN"
 "http://www.w3.org/TR/2001/REC-SVG-20010904/DTD/svg10.dtd">
<svg version="1.0" xmlns="http://www.w3.org/2000/svg"
 width="180.000000pt" height="181.000000pt" viewBox="0 0 180.000000 181.000000"
 preserveAspectRatio="xMidYMid meet">
<metadata>
Created by potrace 1.16, written by Peter Selinger 2001-2019
</metadata>
<g transform="translate(0.000000,181.000000) scale(0.100000,-0.100000)"
fill="#000000" stroke="none">
<path d="M0 905 l0 -905 900 0 900 0 0 905 0 905 -900 0 -900 0 0 -905z m1000
429 c32 -19 60 -63 60 -93 0 -12 -16 -76 -36 -143 -54 -181 -40 -195 139 -138
127 41 169 40 213 -4 28 -28 34 -41 34 -78 0 -50 -18 -82 -60 -103 -41 -21
-57 -19 -191 22 -89 27 -125 34 -136 27 -38 -24 -38 -39 0 -162 41 -133 43
-151 22 -192 -21 -42 -53 -60 -103 -60 -37 0 -50 6 -78 34 -44 44 -44 85 0
226 18 58 31 113 28 123 -11 41 -43 42 -173 2 -138 -41 -170 -41 -213 4 -34
36 -43 88 -22 129 37 71 94 78 241 31 105 -33 141 -34 161 -4 10 17 7 37 -22
130 -49 160 -45 206 19 245 39 24 80 25 117 4z"/>
</g>
</svg>
