<?xml version="1.0" standalone="no"?>
<!DOCTYPE svg PUBLIC "-//W3C//DTD SVG 20010904//EN"
 "http://www.w3.org/TR/2001/REC-SVG-20010904/DTD/svg10.dtd">
<svg version="1.0" xmlns="http://www.w3.org/2000/svg"
 width="160.000000pt" height="150.000000pt" viewBox="0 0 160.000000 150.000000"
 preserveAspectRatio="xMidYMid meet">
<metadata>
Created by potrace 1.16, written by Peter Selinger 2001-2019
</metadata>
<g transform="translate(0.000000,150.000000) scale(0.100000,-0.100000)"
fill="#000000" stroke="none">
<path d="M0 750 l0 -750 800 0 800 0 0 750 0 750 -800 0 -800 0 0 -750z m900
338 l0 -203 143 143 143 142 37 -38 c20 -21 37 -41 37 -44 0 -4 -61 -67 -135
-141 -74 -74 -135 -137 -135 -141 0 -3 88 -6 195 -6 l195 0 0 -60 0 -60 -195
2 c-107 2 -195 1 -195 -2 0 -3 62 -67 137 -142 l138 -138 -42 -41 -41 -42
-141 141 -141 141 0 -199 0 -200 -60 0 -60 0 0 201 0 200 -141 -141 -142 -142
-41 41 -41 41 140 140 140 140 -55 0 c-30 1 -119 1 -197 0 l-143 -1 0 61 0 60
195 0 c107 0 195 2 195 5 0 2 -55 60 -122 128 -170 171 -158 151 -112 198 l38
39 143 -142 143 -143 0 203 0 202 60 0 60 0 0 -202z"/>
</g>
</svg>
