<?xml version="1.0" standalone="no"?>
<!DOCTYPE svg PUBLIC "-//W3C//DTD SVG 20010904//EN"
 "http://www.w3.org/TR/2001/REC-SVG-20010904/DTD/svg10.dtd">
<svg version="1.0" xmlns="http://www.w3.org/2000/svg"
 width="180.000000pt" height="181.000000pt" viewBox="0 0 180.000000 181.000000"
 preserveAspectRatio="xMidYMid meet">
<metadata>
Created by potrace 1.16, written by Peter Selinger 2001-2019
</metadata>
<g transform="translate(0.000000,181.000000) scale(0.100000,-0.100000)"
fill="#000000" stroke="none">
<path d="M0 905 l0 -905 900 0 900 0 0 905 0 905 -900 0 -900 0 0 -905z m950
405 c11 -11 20 -27 20 -35 0 -18 56 -227 71 -266 9 -23 23 -29 117 -53 206
-53 217 -57 220 -92 2 -17 -3 -36 -10 -41 -7 -6 -78 -28 -158 -49 -80 -20
-151 -42 -158 -49 -7 -6 -30 -78 -52 -160 -22 -82 -46 -155 -54 -164 -12 -11
-22 -13 -43 -5 -26 9 -31 20 -69 163 -23 84 -48 159 -55 166 -8 8 -79 30 -159
50 -80 20 -150 41 -157 47 -17 14 -17 53 0 70 8 7 82 31 166 52 99 25 155 45
160 55 5 9 23 72 40 141 45 177 47 182 94 189 4 0 16 -8 27 -19z"/>
</g>
</svg>
