<?xml version="1.0" standalone="no"?>
<!DOCTYPE svg PUBLIC "-//W3C//DTD SVG 20010904//EN"
 "http://www.w3.org/TR/2001/REC-SVG-20010904/DTD/svg10.dtd">
<svg version="1.0" xmlns="http://www.w3.org/2000/svg"
 width="160.000000pt" height="150.000000pt" viewBox="0 0 160.000000 150.000000"
 preserveAspectRatio="xMidYMid meet">
<metadata>
Created by potrace 1.16, written by Peter Selinger 2001-2019
</metadata>
<g transform="translate(0.000000,150.000000) scale(0.100000,-0.100000)"
fill="#000000" stroke="none">
<path d="M0 750 l0 -750 800 0 800 0 0 750 0 750 -800 0 -800 0 0 -750z m882
320 c-2 -60 0 -110 5 -110 4 0 43 35 85 77 l78 77 70 -69 70 -70 -82 -82 -83
-83 118 0 118 0 -3 -97 -3 -98 -113 -5 -113 -5 81 -80 80 -79 -70 -69 -70 -68
-81 80 c-44 45 -83 81 -85 81 -2 0 -4 -52 -4 -115 l0 -115 -95 0 -95 0 0 117
0 118 -83 -83 -82 -82 -70 70 -69 70 77 78 c42 42 77 80 77 82 0 3 -49 4 -110
2 l-110 -4 0 101 0 101 116 0 115 0 -81 81 -82 81 24 26 c12 14 43 46 67 70
l45 43 83 -83 83 -83 0 118 0 117 98 0 97 0 -3 -110z"/>
</g>
</svg>
