<?xml version="1.0" standalone="no"?>
<!DOCTYPE svg PUBLIC "-//W3C//DTD SVG 20010904//EN"
 "http://www.w3.org/TR/2001/REC-SVG-20010904/DTD/svg10.dtd">
<svg version="1.0" xmlns="http://www.w3.org/2000/svg"
 width="161.000000pt" height="150.000000pt" viewBox="0 0 161.000000 150.000000"
 preserveAspectRatio="xMidYMid meet">
<metadata>
Created by potrace 1.16, written by Peter Selinger 2001-2019
</metadata>
<g transform="translate(0.000000,150.000000) scale(0.100000,-0.100000)"
fill="#000000" stroke="none">
<path d="M0 750 l0 -750 805 0 805 0 0 750 0 750 -805 0 -805 0 0 -750z m680
330 c0 -82 3 -150 8 -150 4 0 75 68 157 150 l150 150 157 0 158 0 0 -155 0
-155 -157 0 -158 0 158 -158 157 -157 0 -158 0 -157 -159 0 -159 0 2 150 c0
83 -1 150 -4 150 -3 0 -73 -67 -155 -150 l-150 -150 -157 0 -158 0 0 160 0
160 152 0 153 0 -153 153 -152 152 0 158 0 157 155 0 155 0 0 -150z"/>
</g>
</svg>
