<?xml version="1.0" standalone="no"?>
<!DOCTYPE svg PUBLIC "-//W3C//DTD SVG 20010904//EN"
 "http://www.w3.org/TR/2001/REC-SVG-20010904/DTD/svg10.dtd">
<svg version="1.0" xmlns="http://www.w3.org/2000/svg"
 width="180.000000pt" height="181.000000pt" viewBox="0 0 180.000000 181.000000"
 preserveAspectRatio="xMidYMid meet">
<metadata>
Created by potrace 1.16, written by Peter Selinger 2001-2019
</metadata>
<g transform="translate(0.000000,181.000000) scale(0.100000,-0.100000)"
fill="#000000" stroke="none">
<path d="M0 905 l0 -905 900 0 900 0 0 905 0 905 -900 0 -900 0 0 -905z m740
312 c0 -85 -2 -156 -4 -158 -2 -2 -72 -3 -155 -1 l-151 3 0 155 0 154 155 0
155 0 0 -153z m628 -3 l-3 -155 -153 -2 -152 -2 0 158 0 157 155 0 156 0 -3
-156z m-310 -321 l3 -153 154 0 155 0 0 -155 0 -155 -155 0 -155 0 0 155 0
155 -160 0 -160 0 0 -155 0 -155 -155 0 -155 0 0 155 0 155 155 0 155 0 0 155
0 156 158 -3 157 -3 3 -152z"/>
</g>
</svg>
