<?xml version="1.0" standalone="no"?>
<!DOCTYPE svg PUBLIC "-//W3C//DTD SVG 20010904//EN"
 "http://www.w3.org/TR/2001/REC-SVG-20010904/DTD/svg10.dtd">
<svg version="1.0" xmlns="http://www.w3.org/2000/svg"
 width="160.000000pt" height="150.000000pt" viewBox="0 0 160.000000 150.000000"
 preserveAspectRatio="xMidYMid meet">
<metadata>
Created by potrace 1.16, written by Peter Selinger 2001-2019
</metadata>
<g transform="translate(0.000000,150.000000) scale(0.100000,-0.100000)"
fill="#000000" stroke="none">
<path d="M0 750 l0 -750 800 0 800 0 0 750 0 750 -800 0 -800 0 0 -750z m547
465 c73 -31 98 -69 108 -166 13 -123 66 -190 154 -191 90 -1 148 70 160 197
10 110 64 168 156 168 82 0 145 -58 153 -141 9 -101 -49 -160 -171 -172 -82
-8 -123 -26 -160 -70 -36 -42 -42 -86 -22 -138 24 -60 85 -94 183 -103 57 -6
81 -13 108 -34 90 -68 86 -189 -9 -259 -43 -32 -123 -29 -170 7 -48 37 -63 68
-70 150 -11 126 -73 194 -168 185 -82 -8 -132 -73 -142 -184 -9 -110 -53 -166
-142 -179 -121 -18 -220 136 -152 235 38 57 68 72 157 80 67 6 89 12 123 36
76 54 88 152 25 214 -40 41 -66 51 -156 60 -77 8 -109 24 -145 72 -29 39 -33
107 -9 154 25 48 40 62 89 80 49 17 56 17 100 -1z"/>
</g>
</svg>
