<?xml version="1.0" standalone="no"?>
<!DOCTYPE svg PUBLIC "-//W3C//DTD SVG 20010904//EN"
 "http://www.w3.org/TR/2001/REC-SVG-20010904/DTD/svg10.dtd">
<svg version="1.0" xmlns="http://www.w3.org/2000/svg"
 width="160.000000pt" height="150.000000pt" viewBox="0 0 160.000000 150.000000"
 preserveAspectRatio="xMidYMid meet">
<metadata>
Created by potrace 1.16, written by Peter Selinger 2001-2019
</metadata>
<g transform="translate(0.000000,150.000000) scale(0.100000,-0.100000)"
fill="#000000" stroke="none">
<path d="M0 750 l0 -750 800 0 800 0 0 750 0 750 -800 0 -800 0 0 -750z m580
280 c0 -183 20 -205 174 -199 125 6 130 12 136 182 l5 132 155 0 155 0 3 -157
3 -158 -120 0 c-162 0 -185 -13 -196 -105 l-6 -44 158 -3 158 -3 3 -157 3
-158 -120 0 c-67 0 -131 -5 -144 -11 -30 -14 -48 -46 -52 -90 -2 -19 -3 -40
-4 -46 -1 -10 -39 -13 -156 -13 l-155 0 0 51 c0 43 -5 55 -29 80 -29 29 -30
29 -155 29 l-126 0 0 160 0 161 153 -3 152 -3 5 -125 c3 -70 10 -134 17 -146
20 -35 64 -46 158 -43 81 4 88 6 111 32 23 26 24 35 24 153 l0 124 -155 0
-155 0 0 51 c0 43 -5 55 -29 80 -29 29 -30 29 -155 29 l-126 0 0 160 0 160
155 0 155 0 0 -120z"/>
</g>
</svg>
